<?xml version="1.0" encoding="utf-8"?>
<!-- Generator: Adobe Illustrator 24.1.0, SVG Export Plug-In . SVG Version: 6.00 Build 0)  -->
<svg version="1.1" id="Layer_1" xmlns="http://www.w3.org/2000/svg" xmlns:xlink="http://www.w3.org/1999/xlink" x="0px" y="0px"
	 viewBox="0 0 174.8 93.2" style="enable-background:new 0 0 174.8 93.2;" xml:space="preserve">
<style type="text/css">
	.st0{fill:#742801;}
	.st1{fill:#230000;}
</style>
<g id="Layer_2_1_">
	<g id="Layer_1-2">
		<path class="st0" d="M80.8,65.6l-14.6-3.5l10.2-15.4l-14.8-4.2l11.2-12.9C68.2,9.7,48.3-2.7,28.4,1.9C8.5,6.4-3.1,29.8,0.7,46.2
			c6.6,28.4,53.7,53.1,86.4,45.6L70.8,81.6L80.8,65.6z"/>
		<path class="st1" d="M101.5,29.7c3.2-20.2,22.1-34,42.3-30.8s34,22.1,30.8,42.3c-0.2,1.1-0.4,2.1-0.6,3.2
			c-6,29.7-58.7,53.3-85.1,47.9L78.2,76.2l15.7-10.4l-11.8-9.3l15.7-9.8l-11.7-10L101.5,29.7z"/>
	</g>
</g>
</svg>
