<svg id="Layer_2" data-name="Layer 2" xmlns="http://www.w3.org/2000/svg" viewBox="0 0 1920 1080"><defs><style>.cls-1{fill:#e7c2a5;}.cls-2{fill:#404041;}.cls-3{fill:#a0866f;}.cls-4{fill:#fbe0c9;}.cls-5{fill:#f1f1f2;}.cls-6{fill:#58595b;}.cls-7{fill:#6d6e70;}.cls-8{fill:#e6e7e8;}.cls-9{fill:#fff;}.cls-10{fill:#231f20;}.cls-11{fill:none;stroke:#231f20;stroke-linecap:round;stroke-linejoin:round;stroke-width:2px;}.cls-12{fill:#603813;}</style></defs><polygon class="cls-1" points="1259.74 620.24 1279.38 579.73 1243.71 576.96 1237.65 641.1 1259.74 620.24"/><polygon class="cls-2" points="199.83 652.74 194.88 595.93 164.34 630.83 145.79 591.56 111.46 612.76 91.25 573.02 84.45 612.88 8.34 591.56 35.81 626.55 -10.2 631.92 7.67 656 -27.66 684.29 -2.48 702.24 50.88 719.2 8.59 738.08 -2.57 793.37 35.31 784.06 30.16 810.83 57.49 818.83 38.89 853.37 72.83 870.54 49.79 891.55 78.16 904.64 59.61 914.46 66.44 922.62 38.89 937.37 82.27 956.73 66.16 966.82 89.47 980.74 73.79 1007.18 99.61 1011.86 94.52 1031.18 109.69 1037.16 103.25 1069.37 131.8 1073.94 131.61 1084.64 152.34 1084.64 159.97 917.73 199.83 652.74"/><path class="cls-3" d="M888.51,449.56s-39.36-50.95-67.77,10.67-36.31,151.4-21.33,149.67S887.23,516.7,888.51,449.56Z"/><path class="cls-3" d="M1338.75,1078.1H1259.5c22.16-38.42,49.69-90.22,70.35-142.45,17.92-45.27,30.66-90.88,30.29-128.41-1.22-123.1,37.49-18.11,47.54,31.08,8.69,42.45,6.34,165.26-27.88,127.69,0,0-3.54,91-19.84,112.09h-15"/><path class="cls-1" d="M1310.66,1078.1H818.58C840.43,976.6,879.52,813,854,543.54c-14.92-157.68,223.17-292.13,345.83-54.93,88.56,171.23,128.87,323.07,130,447C1330.33,988.4,1323.71,1036.1,1310.66,1078.1Z"/><path class="cls-4" d="M1151.81,1078.1H945c-17.81-68.68-28.56-150.94,17.3-197.79,72.09-73.65,155.67-54.53,200.24,35.75C1181.75,954.91,1167.7,1018.75,1151.81,1078.1Z"/><path class="cls-3" d="M1125.19,475.27c5.22-22.2,53.71-73.57,89.44-18s55.88,138.53,42.08,142.31C1197.91,615.69,1110.09,539.57,1125.19,475.27Z"/><path class="cls-2" d="M-.38,715.23c-13.47-54.23,31-120.08,126.63-100,36.87,7.74,61.2,23.49,77.24,41.38,34.37,38.35,30.59,86.52,30.59,86.52l12.58,341.49h-108C120.9,1055.76,103.42,1039.1,85,957.41c-6.42-1.41-12.12-3.81-15.28-7a23,23,0,0,1,7.82-37.73c-.32-3.09-.61-6.23-.87-9.38-6.61-83.13-28-99.61-43.25-122C23,766.13,4.08,733.15-.38,715.23Z"/><path class="cls-5" d="M113.79,1043.58s112.86-31.84,121-56.13l-33.1-70.09s-21,41.58-116.7,40C79.16,957.31,113.12,1052,113.79,1043.58Z"/><path class="cls-5" d="M73.51,874.77s129.24,20.78,161.3-86.38-48-21.89-48-21.89S77.07,809.74,50,805.37C50,805.37,66.44,827.64,73.51,874.77Z"/><path class="cls-2" d="M282.82,569.76c-6.13-12-10.74-23.45-11.95-32.76-6.68-51.6,46.95-51.65,66-21.79,2.3,3.59,5,8.25,7.87,13.66"/><path class="cls-6" d="M295.52,550.54c-3-5.84-5.22-11.39-5.81-15.92-3.24-25.07,22.82-25.09,32.09-10.59,1.11,1.75,2.41,4,3.82,6.64"/><path class="cls-2" d="M539.9,587.53c6.12-12,10.74-23.45,12-32.76,6.67-51.6-47-51.65-66-21.79-2.29,3.59-5,8.25-7.87,13.66"/><path class="cls-6" d="M527.19,568.31c3-5.84,5.22-11.39,5.81-15.91,3.24-25.08-22.81-25.1-32.08-10.59-1.12,1.74-2.41,4-3.83,6.64"/><path class="cls-7" d="M559.45,695.38c-22,177.65-26.65,307.56-20.2,389.26H152c-28.77-118.15-9.55-279.51,51.52-428,10.77-26.18,28.71-50.29,45.85-76.11C322.41,470.39,585.07,488.13,559.45,695.38Z"/><path class="cls-8" d="M459.47,1084.64H294.15c-14.76-53.73-32-116.45-14.15-152.68,36.64-74.23,92.05-72.08,151.31-11.52C472.59,962.62,467,1028.77,459.47,1084.64Z"/><path class="cls-2" d="M480.85,666.77c19.75,10.32,79.73,29.58,93.44,33.92,1.34.42,2.23.72,2.61.83l.21.07c7.13,1.28,14.12-4.24,15.58-12.36s-3.15-15.73-10.27-17a11.35,11.35,0,0,0-2.9-.15l0-.37a15.29,15.29,0,0,0,8.75-11.52c1.47-8.12-3.12-15.74-10.27-17-13.82-2.47-61.15-34.22-85.79-33.86C453.48,609.87,457.33,654.46,480.85,666.77Z"/><path class="cls-2" d="M377.27,656.63c-24.81,3.56-96.24,2.87-112.55,2.64-1.59,0-2.65,0-3.11,0h-.25a14.93,14.93,0,0,1,3.76-29.62,14.71,14.71,0,0,1,3.19.77l.09-.35a14.91,14.91,0,0,1,10.9-26.66c15.82,2,77.55-13.17,104.22-5C425.45,611.2,406.83,652.37,377.27,656.63Z"/><circle class="cls-9" cx="499.52" cy="641.4" r="20.52"/><circle class="cls-10" cx="504.99" cy="637.12" r="10.8"/><circle class="cls-9" cx="367.64" cy="624.69" r="20.52"/><path class="cls-5" d="M430.64,653.48s30.71-2.35,32.59,49.35-101.55,40.43-96-3.27C370.84,671.27,407.37,648.27,430.64,653.48Z"/><ellipse class="cls-6" cx="428.74" cy="663.83" rx="10.62" ry="14.55" transform="matrix(0.13, -0.99, 0.99, 0.13, -283.71, 1005.72)"/><circle class="cls-2" cx="522.53" cy="700.09" r="5.4"/><circle class="cls-2" cx="487.69" cy="691.75" r="5.4"/><circle class="cls-2" cx="495.21" cy="718.42" r="5.4"/><circle class="cls-2" cx="520.02" cy="719.91" r="5.4"/><circle class="cls-2" cx="504.52" cy="703.25" r="5.4"/><circle class="cls-2" cx="360.83" cy="678.43" r="5.4"/><circle class="cls-2" cx="337.45" cy="675.47" r="5.4"/><circle class="cls-2" cx="348.22" cy="691.95" r="5.4"/><circle class="cls-2" cx="330.66" cy="696.84" r="5.4"/><circle class="cls-2" cx="317.18" cy="678.35" r="5.4"/><line class="cls-11" x1="524.02" y1="612.4" x2="461.59" y2="632.92"/><path class="cls-11" d="M419.18,722.68s13.81-42.74-29-25.41"/><path class="cls-11" d="M427.41,674.36s-1.52,8.42-10.38,22.09"/><circle class="cls-10" cx="374.08" cy="621.26" r="10.8"/><line class="cls-11" x1="352.58" y1="591.11" x2="407.92" y2="626.55"/><polygon class="cls-5" points="49.79 805.37 30.16 810.83 57.49 818.83 38.89 853.37 72.83 870.54 69.54 873.54 92.6 876.4 101.06 831.55 49.79 805.37"/><polygon class="cls-5" points="84.7 957 82.27 956.73 66.16 966.82 89.47 980.74 73.79 1007.18 99.61 1011.86 94.52 1031.18 109.69 1037.16 107.76 1046.79 124.33 1040.46 123.97 993 84.7 957"/><polygon class="cls-7" points="248.33 580.65 211.24 580.65 215.99 631.65 174.15 637.38 196.58 674.37 145.79 685.38 179.32 722.68 157.79 722.47 170.45 751.93 133.79 772.65 157.03 805.37 133.79 823.92 148.86 848.09 248.33 580.65"/><circle class="cls-9" cx="908.25" cy="533.93" r="24.49"/><circle class="cls-9" cx="1066.91" cy="533.93" r="24.49"/><path class="cls-4" d="M988,558.56s-46.15-2.49-56.14,58.44,114.49,62.11,114.47,9.53C1046.31,592.5,1016.33,555.88,988,558.56Z"/><ellipse class="cls-12" cx="988.69" cy="571.1" rx="17.37" ry="12.68"/><circle class="cls-10" cx="900.9" cy="530.09" r="12.89"/><line class="cls-11" x1="883.76" y1="494.64" x2="954.6" y2="528.3"/><path class="cls-11" d="M992,640.65s-9.94-52.68,38.16-25.74"/><path class="cls-11" d="M989.51,582.21s.54,10.19,9,27.7"/><circle class="cls-10" cx="1059.26" cy="530.09" r="12.89"/><line class="cls-11" x1="1089.78" y1="494.64" x2="1018.94" y2="528.3"/><polygon class="cls-1" points="1259.74 620.24 1299.03 642.33 1274.47 670.56 1312.53 677.93 1291.28 708.33 1329.71 735.62 1307.44 767.03 1329.71 776.13 1316.14 806.83 1343.22 824 1321.89 845.62 1343.22 875.56 1328.24 896.38 1222.92 835.05 1259.74 620.24"/></svg>