<svg id="Layer_3" data-name="Layer 3" xmlns="http://www.w3.org/2000/svg" viewBox="0 0 1920 1080"><defs><style>.cls-1{fill:#a0866f;}.cls-2{fill:#e7c2a5;}.cls-3{fill:#fff;}.cls-4{fill:#fbe0c9;}.cls-5{fill:#603813;}.cls-6{fill:none;}.cls-6,.cls-8{stroke:#231f20;stroke-linecap:round;stroke-linejoin:round;stroke-width:2px;}.cls-7{fill:#d31c5b;}.cls-8{fill:#231f20;}.cls-9{fill:#404041;}.cls-10{fill:#f1f1f2;}.cls-11{fill:#58595b;}.cls-12{fill:#6d6e70;}.cls-13{fill:#e6e7e8;}</style></defs><path class="cls-1" d="M863.49,413.17s-41.49-53.7-71.43,11.24S753.79,584,769.57,582.16,862.13,483.94,863.49,413.17Z"/><path class="cls-1" d="M1318,968.61h-83.52c23.35-40.49,52.36-95.08,74.13-150.13,18.89-47.71,32.32-95.78,31.93-135.34-1.28-129.73,39.51-19.09,50.1,32.76,9.16,44.74,6.69,174.17-29.38,134.57,0,0-29.93,134.33-47.11,156.54l-15-8"/><path class="cls-2" d="M1308.4,1075.61H789.79c23-107,64.22-279.45,37.36-563.39C811.43,346,1062.36,204.33,1191.64,454.33c93.33,180.46,135.82,340.5,137,471.15C1329.13,981.08,1322.15,1031.35,1308.4,1075.61Z"/><circle class="cls-3" cx="872.06" cy="501.05" r="26.78"/><circle class="cls-3" cx="1045.52" cy="501.05" r="26.78"/><path class="cls-4" d="M959.24,528s-50.46-2.72-61.38,63.89S1023,659.78,1023,602.3C1023,565.09,990.22,525.06,959.24,528Z"/><ellipse class="cls-5" cx="960" cy="541.69" rx="18.99" ry="13.86"/><path class="cls-4" d="M1141,1075.61H923.05c-18.77-72.38-30.1-159.08,18.23-208.46,76-77.62,164.07-57.47,211,37.68C1172.54,945.77,1157.73,1013.06,1141,1075.61Z"/><path class="cls-1" d="M1112.93,440.27c5.5-23.4,56.6-77.54,94.26-19s58.9,146,44.36,150C1189.57,588.26,1097,508,1112.93,440.27Z"/><path class="cls-6" d="M961.2,556.94c1.06,82.61-68.49,50.24-41.51,13.6"/><path class="cls-6" d="M1000.65,566.07c36.64,36.77-38,81-38.92-9.13"/><path class="cls-7" d="M866.65,499.66a10.42,10.42,0,1,1,20.83,0c0,8.52-13.25,18-20.83,18-9.46,0-20.83-9.79-20.83-18,0-4.74,4.67-10.42,10.42-10.42a10.42,10.42,0,0,1,10.41,10.42"/><path class="cls-6" d="M830.43,484.13s45.59-4.24,66.19-29.28"/><path class="cls-7" d="M1039.52,498.11a10.42,10.42,0,0,0-20.83,0c0,8.53,13.25,18,20.83,18,9.47,0,20.83-9.78,20.83-18,0-4.73-4.66-10.41-10.42-10.41a10.41,10.41,0,0,0-10.41,10.41"/><path class="cls-6" d="M1086.86,483.73s-45.59-4.25-66.19-29.29"/><path class="cls-8" d="M943.82,607.31s16.92,21.67,37.82.6c-1.13-1.19-17.58-6.18-19.86-36.94C961.78,571,952.17,609.86,943.82,607.31Z"/><path class="cls-9" d="M320.83,1085.5H192.71c-21-34.24-41.76-54-63.59-150.89-7.62-1.66-14.37-4.51-18.12-8.27a27.36,27.36,0,0,1,0-38.67,26.84,26.84,0,0,1,9.27-6.07c-.37-3.67-.73-7.4-1-11.13-7.84-98.6-32.92-120.28-55.38-143.2a16.57,16.57,0,0,1-7.07,1.58,16.91,16.91,0,0,1-16.93-16.93,17.14,17.14,0,0,1,.08-1.76c-14.51-2.43-30.7-11.19-30.7-36A28.53,28.53,0,0,1,27.85,647.4C23.64,581.26,64.57,505,178,528.83c43.73,9.18,72.58,27.86,91.61,49.07,40.76,45.49,36.27,102.62,36.27,102.62Z"/><path class="cls-10" d="M163.25,1036.81s133.84-37.76,143.52-66.57l-39.25-83.12s-24.85,49.31-138.4,47.49C122.18,934.5,162.46,1046.77,163.25,1036.81Z"/><path class="cls-10" d="M115.48,836.61s153.27,24.64,191.29-102.45-56.95-26-56.95-26S114,775.12,87.59,754.3C87.59,754.3,107.09,780.71,115.48,836.61Z"/><path class="cls-9" d="M341.72,485.23C334.46,471,329,457.41,327.55,446.38c-7.92-61.2,55.68-61.26,78.3-25.85,2.72,4.26,5.88,9.79,9.33,16.21"/><path class="cls-11" d="M356.78,462.44c-3.53-6.93-6.19-13.52-6.88-18.88C346.05,413.82,377,413.79,388,431c1.32,2.07,2.85,4.76,4.53,7.88"/><path class="cls-9" d="M668.6,496c7.26-14.25,12.74-27.81,14.17-38.85,7.91-61.2-55.68-61.25-78.31-25.84-2.71,4.25-5.87,9.79-9.32,16.2"/><path class="cls-11" d="M653.53,473.16c3.53-6.92,6.19-13.51,6.89-18.87,3.84-29.74-27.06-29.77-38-12.56-1.32,2.06-2.86,4.75-4.53,7.87"/><path class="cls-12" d="M691.78,623.85c-26,210.7-31.6,364.77-23.95,461.65H208.53C174.42,945.39,197.2,754,269.64,577.9c12.77-31,34.05-59.64,54.37-90.26C410.66,357,722.17,378.07,691.78,623.85Z"/><path class="cls-9" d="M590.2,583.26c24.4,11.56,97.91,32.1,114.71,36.7l3.2.9a1.71,1.71,0,0,0,.26.06c8.69,1.23,16.89-5.74,18.29-15.6s-4.54-18.84-13.23-20.07a13.4,13.4,0,0,0-3.52-.06l0-.44c5.15-2.4,10.34-7.54,11.28-14.14,1.39-9.86-2.28-17.09-12.54-20.5-16.13-5.38-77.53-38.26-107.35-36.71C554.42,515.85,561.15,569.46,590.2,583.26Z"/><path class="cls-9" d="M470.17,589.89c-29.17,8-114.82,18-134.38,20.25-1.91.22-3.19.38-3.73.43a2.14,2.14,0,0,1-.3,0,18,18,0,1,1,0-36,17.78,17.78,0,0,1,3.95.43l.05-.43a18,18,0,0,1,9-33.58c19.24,0,90.87-27.54,124-21.83C521,528.17,504.92,580.31,470.17,589.89Z"/><circle class="cls-3" cx="614.27" cy="553.11" r="24.77"/><circle class="cls-3" cx="453.79" cy="553.11" r="24.77"/><path class="cls-10" d="M533.25,577.45s46.66-2,56.77,59.68S474.21,700,474.24,646.77C474.25,612.34,504.59,574.74,533.25,577.45Z"/><ellipse class="cls-11" cx="532.91" cy="590.7" rx="17.57" ry="12.82"/><path class="cls-6" d="M532.91,603.52c-1,76.43,63.37,46.48,38.4,12.59"/><path class="cls-6" d="M496.41,612c-33.9,34,35.15,74.94,36-8.45"/><path class="cls-13" d="M573.22,1085.5H377.15c-17.51-63.72-38-138.1-16.78-181.06,43.46-88,109.16-85.48,179.45-13.67C588.78,940.8,582.13,1019.25,573.22,1085.5Z"/><circle class="cls-9" cx="650.73" cy="619.89" r="6.52"/><circle class="cls-9" cx="607.74" cy="615.2" r="6.52"/><circle class="cls-9" cx="620.79" cy="645.99" r="6.52"/><circle class="cls-9" cx="650.73" cy="644.02" r="6.52"/><circle class="cls-9" cx="629.64" cy="626.42" r="6.52"/><circle class="cls-9" cx="453.79" cy="618.49" r="6.52"/><circle class="cls-9" cx="425.34" cy="618.49" r="6.52"/><circle class="cls-9" cx="440.75" cy="636.6" r="6.52"/><circle class="cls-9" cx="420.45" cy="645.12" r="6.52"/><circle class="cls-9" cx="401.51" cy="625.02" r="6.52"/><path class="cls-7" d="M620.87,550.53a9.64,9.64,0,1,0-19.27,0c0,7.88,12.26,16.64,19.27,16.64,8.76,0,19.28-9,19.28-16.64,0-4.38-4.32-9.64-9.64-9.64a9.65,9.65,0,0,0-9.64,9.64"/><path class="cls-6" d="M650.73,537.22s-42.18-3.93-61.23-27.09"/><path class="cls-7" d="M459.73,550.42a9.64,9.64,0,0,1,19.27,0c0,7.89-12.26,16.65-19.27,16.65-8.76,0-19.28-9.06-19.28-16.65,0-4.38,4.32-9.63,9.64-9.63a9.64,9.64,0,0,1,9.64,9.63"/><path class="cls-6" d="M416.65,535.79s42.18-3.92,61.24-27.09"/><path class="cls-8" d="M551.47,650.35s-18.06,20.78-37.4,1.29c1-1.1,14.62-5.85,18-34.32C532.11,617.32,535.53,650.35,551.47,650.35Z"/></svg>