<svg id="Layer_2" data-name="Layer 2" xmlns="http://www.w3.org/2000/svg" viewBox="0 0 1920 1080"><defs><style>.cls-1{fill:#58595b;}.cls-2{fill:#404041;}.cls-3{fill:#f1f1f2;}.cls-4{fill:#6d6e70;}.cls-5{fill:#fff;}.cls-6{fill:#231f20;}.cls-7{fill:none;stroke:#231f20;stroke-linecap:round;stroke-linejoin:round;stroke-width:2px;}.cls-8{fill:#e6e7e8;}.cls-9{fill:#a0866f;}.cls-10{fill:#e7c2a5;}.cls-11{fill:#fbe0c9;}.cls-12{fill:#603813;}</style></defs><ellipse class="cls-1" cx="152.23" cy="1100.92" rx="81.49" ry="74.3"/><path class="cls-2" d="M1052.91,524.26c.07.75.1,1.46.1,2.21a21.33,21.33,0,0,1-30.28,19.19c-28.32,28.65-60,55.76-69.86,179-.38,4.66-.82,9.32-1.3,13.92a34,34,0,0,1,11.7,55.93c-4.73,4.7-13.25,8.27-22.86,10.34-32,140.59-107.35,243-107.35,243l-138.49,53.07L717.4,487.21S705.21,333.66,878.72,297.56c143.12-29.8,194.75,65.56,189.43,148.24a35.69,35.69,0,0,1,23.48,33.41C1091.63,510.28,1071.21,521.23,1052.91,524.26Z"/><ellipse class="cls-1" cx="776.05" cy="1100.92" rx="81.49" ry="74.3"/><ellipse class="cls-2" cx="773.42" cy="1058.71" rx="18.25" ry="18.09"/><ellipse class="cls-2" cx="817.35" cy="1076.95" rx="15.33" ry="15.19"/><path class="cls-3" d="M897.35,932.65S728.51,885.44,716.3,849.42l49.52-103.91s31.34,61.65,174.59,59.37C949.16,804.75,898.35,945.1,897.35,932.65Z"/><path class="cls-3" d="M957.61,682.36S764.26,713.17,716.3,554.28s71.84-32.46,71.84-32.46,171.41,83.66,204.66,57.63C992.8,579.45,968.2,612.47,957.61,682.36Z"/><path class="cls-2" d="M640.55,191.84c9.16-17.82,16.07-34.77,17.87-48.57,10-76.51-70.24-76.58-98.78-32.31-3.42,5.32-7.41,12.24-11.76,20.26"/><path class="cls-1" d="M621.54,163.35c4.45-8.66,7.81-16.89,8.69-23.6,4.85-37.18-34.13-37.21-48-15.7-1.67,2.59-3.6,6-5.72,9.84"/><path class="cls-2" d="M306.54,195.34c-9.16-17.82-16.07-34.77-17.88-48.57-10-76.51,70.24-76.58,98.78-32.31,3.43,5.32,7.42,12.24,11.77,20.26"/><path class="cls-1" d="M325.54,166.85c-4.45-8.66-7.81-16.9-8.68-23.6-4.86-37.18,34.13-37.21,48-15.7,1.67,2.58,3.61,5.94,5.72,9.84"/><path class="cls-4" d="M694.56,1155.42c-11.94,10.17-312.7,59.83-445-14-120.77-67.41-143-508,13.15-895.32,72.28-179.27,354-180.14,431.88,0C880.93,677.36,849.68,1023.41,694.56,1155.42Z"/><path class="cls-2" d="M405.23,329.3c-36.8,10-144.84,22.56-169.52,25.32l-4.71.54a2.52,2.52,0,0,1-.37,0,22.53,22.53,0,1,1,0-45.05,22.07,22.07,0,0,1,5,.54l.07-.54a22.37,22.37,0,0,1-11.36-19.46A22.6,22.6,0,0,1,247,268.16c24.27,0,114.62-34.43,156.47-27.28C469.33,252.14,449.07,317.33,405.23,329.3Z"/><path class="cls-2" d="M563.52,329.3c36.8,10,144.84,22.56,169.52,25.32l4.7.54a2.57,2.57,0,0,0,.38,0,22.53,22.53,0,1,0,0-45.05,22.16,22.16,0,0,0-5,.54l-.07-.54a22.46,22.46,0,0,0-11.36-42c-24.28,0-114.63-34.43-156.48-27.28C499.42,252.14,519.68,317.33,563.52,329.3Z"/><ellipse class="cls-5" cx="381.74" cy="283.31" rx="31.25" ry="30.97"/><ellipse class="cls-6" cx="381.74" cy="283.31" rx="16.45" ry="16.3"/><ellipse class="cls-5" cx="584.18" cy="283.31" rx="31.25" ry="30.97"/><ellipse class="cls-6" cx="584.18" cy="283.31" rx="16.45" ry="16.3"/><path class="cls-3" d="M483.48,314.46s-58.88-3.14-71.64,73.9,146.1,78.54,146.07,12.05C557.89,357.38,519.64,311.08,483.48,314.46Z"/><ellipse class="cls-1" cx="484.37" cy="330.32" rx="22.16" ry="16.03"/><path class="cls-7" d="M445.78,381.32c-23.4,22,44.88,64.08,38.59-35"/><path class="cls-7" d="M523.59,381.32c23.4,22-44.89,64.08-38.59-35"/><path class="cls-8" d="M249.53,1141.39s107.8,49.93,121-24.52-111-286.63-12.25-386.69c88.67-89.78,235.55-73.08,290.36,37,48.18,96.72-74.13,320.68-38,365.14,32.79,40.38,83.91,23.13,83.91,23.13C605.59,1204.76,342.68,1196.44,249.53,1141.39Z"/><ellipse class="cls-2" cx="162.95" cy="1114.09" rx="36.73" ry="36.4"/><ellipse class="cls-2" cx="119.37" cy="1062.5" rx="15.33" ry="15.19"/><ellipse class="cls-2" cx="159.84" cy="1056.43" rx="13.31" ry="13.19"/><ellipse class="cls-2" cx="335.74" cy="366.82" rx="8.23" ry="8.16"/><ellipse class="cls-2" cx="389.97" cy="360.94" rx="8.23" ry="8.16"/><ellipse class="cls-2" cx="373.51" cy="399.44" rx="8.23" ry="8.16"/><ellipse class="cls-2" cx="335.74" cy="396.97" rx="8.23" ry="8.16"/><ellipse class="cls-2" cx="362.34" cy="374.97" rx="8.23" ry="8.16"/><ellipse class="cls-2" cx="584.18" cy="365.06" rx="8.23" ry="8.16"/><ellipse class="cls-2" cx="620.07" cy="365.06" rx="8.23" ry="8.16"/><ellipse class="cls-2" cx="600.63" cy="387.7" rx="8.23" ry="8.16"/><ellipse class="cls-2" cx="626.24" cy="398.35" rx="8.23" ry="8.16"/><ellipse class="cls-2" cx="650.14" cy="373.22" rx="8.23" ry="8.16"/><path class="cls-9" d="M1829.07,1037.83s125.56-187,124.46-296.65,33.61-16.13,42.64,27.67c7.78,37.8,5.68,147.15-25,113.7,0,0-5.6,143-36.21,93.08,0,0-5.6,73.59-21.1,99.83"/><ellipse class="cls-10" cx="1414.41" cy="1081.87" rx="59.41" ry="54.27"/><ellipse class="cls-10" cx="1869.22" cy="1081.87" rx="59.41" ry="54.27"/><ellipse class="cls-9" cx="1861.26" cy="1095.78" rx="26.78" ry="26.59"/><ellipse class="cls-9" cx="1867.3" cy="1051.04" rx="13.31" ry="13.21"/><ellipse class="cls-9" cx="1899.32" cy="1064.36" rx="11.17" ry="11.09"/><path class="cls-10" d="M1809.81,1121.68c-8.71,7.43-228,43.7-324.46-10.25-88.06-49.24-104.26-371.08,9.58-654,52.7-130.95,258.12-131.58,314.88,0C1945.68,772.48,1922.89,1025.25,1809.81,1121.68Z"/><ellipse class="cls-5" cx="1581.74" cy="484.65" rx="22.78" ry="22.62"/><ellipse class="cls-6" cx="1581.74" cy="484.65" rx="11.99" ry="11.9"/><ellipse class="cls-5" cx="1729.33" cy="484.65" rx="22.78" ry="22.62"/><ellipse class="cls-6" cx="1729.33" cy="484.65" rx="11.99" ry="11.9"/><path class="cls-11" d="M1655.91,507.4s-42.93-2.29-52.23,54,106.51,57.38,106.49,8.81C1710.16,538.75,1682.27,504.93,1655.91,507.4Z"/><ellipse class="cls-12" cx="1656.56" cy="518.99" rx="16.16" ry="11.71"/><path class="cls-7" d="M1628.43,556.24c-17.06,16.1,32.72,46.81,28.13-25.55"/><path class="cls-7" d="M1685.15,556.24c17.06,16.1-32.72,46.81-28.13-25.55"/><path class="cls-11" d="M1485.35,1111.43s78.59,36.48,88.24-17.91-81-209.37-8.93-282.45c64.65-65.59,171.73-53.39,211.7,27,35.12,70.65-54,234.24-27.73,266.71,23.91,29.5,61.18,16.9,61.18,16.9C1744.94,1157.72,1553.26,1151.65,1485.35,1111.43Z"/><ellipse class="cls-9" cx="1422.23" cy="1091.49" rx="26.78" ry="26.59"/><ellipse class="cls-9" cx="1377.15" cy="1085.65" rx="13.31" ry="13.21"/><ellipse class="cls-9" cx="1390.45" cy="1053.81" rx="11.17" ry="11.09"/><ellipse class="cls-9" cx="1419.95" cy="1049.37" rx="9.7" ry="9.63"/><path class="cls-9" d="M1534.72,427s-26.35-49.49-58.39,0-50.56,126.17-37.74,126.72S1524.75,484.94,1534.72,427Z"/><path class="cls-9" d="M1779,432.29s26.35-49.49,58.39,0,50.56,126.17,37.74,126.72S1788.93,490.27,1779,432.29Z"/></svg>