<svg id="Layer_1" data-name="Layer 1" xmlns="http://www.w3.org/2000/svg" viewBox="0 0 440.16 481.59"><defs><style>.cls-1{fill:#58595b;}.cls-2{fill:#404041;}.cls-3{fill:#f1f1f2;}.cls-4{fill:#6d6e70;}.cls-5{fill:#fff;}.cls-6{fill:#231f20;}.cls-7{fill:none;stroke:#231f20;stroke-linecap:round;stroke-linejoin:round;stroke-width:2px;}.cls-8{fill:#e6e7e8;}</style></defs><ellipse class="cls-1" cx="35.13" cy="443.71" rx="35.13" ry="32.32"/><path class="cls-2" d="M501.14,235.51c0,.32.05.63.05,1a9.2,9.2,0,0,1-13.06,8.35c-12.21,12.46-25.86,24.26-30.12,77.88-.16,2-.35,4.06-.56,6.06a14.66,14.66,0,0,1,5.05,3.3,14.88,14.88,0,0,1,0,21c-2.05,2-5.72,3.6-9.86,4.5-13.78,61.16-46.29,105.7-46.29,105.7l-59.71,23.09,9.85-267s-5.26-66.8,69.55-82.51c61.71-13,84,28.52,81.67,64.49a15.52,15.52,0,0,1,10.13,14.54C517.84,229.42,509,234.19,501.14,235.51Z" transform="translate(-77.68 -42.67)"/><ellipse class="cls-1" cx="304.09" cy="443.71" rx="35.13" ry="32.32"/><circle class="cls-2" cx="299.39" cy="451.99" r="15.84"/><circle class="cls-2" cx="302.96" cy="425.34" r="7.87"/><circle class="cls-2" cx="321.9" cy="433.28" r="6.61"/><circle class="cls-2" cx="324.48" cy="450.73" r="5.74"/><path class="cls-3" d="M434.07,413.17S361.28,392.63,356,377l21.35-45.2s13.52,26.82,75.28,25.83C456.41,357.53,434.5,418.59,434.07,413.17Z" transform="translate(-77.68 -42.67)"/><path class="cls-3" d="M460.06,304.29s-83.37,13.4-104-55.72,31-14.13,31-14.13,73.9,36.4,88.24,25.08C475.23,259.52,464.62,273.88,460.06,304.29Z" transform="translate(-77.68 -42.67)"/><path class="cls-2" d="M323.35,90.89c3.95-7.75,6.93-15.13,7.71-21.13,4.3-33.29-30.28-33.32-42.59-14.06C287,58,285.27,61,283.4,64.52" transform="translate(-77.68 -42.67)"/><path class="cls-1" d="M315.16,78.5c1.92-3.77,3.36-7.35,3.74-10.27C321,52.05,304.19,52,298.21,61.4c-.72,1.12-1.56,2.58-2.47,4.28" transform="translate(-77.68 -42.67)"/><path class="cls-2" d="M179.34,92.41c-4-7.75-6.93-15.12-7.7-21.13C167.33,38,201.92,38,214.22,57.22c1.48,2.32,3.2,5.33,5.08,8.82" transform="translate(-77.68 -42.67)"/><path class="cls-1" d="M187.54,80c-1.92-3.77-3.37-7.35-3.75-10.27-2.09-16.17,14.72-16.19,20.7-6.83C205.21,64,206,65.51,207,67.2" transform="translate(-77.68 -42.67)"/><path class="cls-4" d="M346.64,510.09c-5.15,4.42-134.82,26-191.87-6.11-52.08-29.32-61.66-221,5.66-389.5,31.17-78,152.65-78.37,186.21,0C427,302.11,413.52,452.66,346.64,510.09Z" transform="translate(-77.68 -42.67)"/><path class="cls-2" d="M221.9,150.69c-15.87,4.37-62.45,9.82-73.1,11l-2,.24-.17,0a9.8,9.8,0,0,1,0-19.6,9,9,0,0,1,2.15.24l0-.24a9.79,9.79,0,0,1,4.9-18.27c10.47,0,49.42-15,67.47-11.87C249.53,117.12,240.8,145.48,221.9,150.69Z" transform="translate(-77.68 -42.67)"/><path class="cls-2" d="M290.14,150.69c15.87,4.37,62.45,9.82,73.09,11l2,.24.16,0a9.8,9.8,0,1,0,0-19.6,8.89,8.89,0,0,0-2.14.24l0-.24a9.79,9.79,0,0,0-4.9-18.27c-10.47,0-49.43-15-67.47-11.87C262.51,117.12,271.24,145.48,290.14,150.69Z" transform="translate(-77.68 -42.67)"/><circle class="cls-5" cx="134.09" cy="88.02" r="13.47"/><circle class="cls-6" cx="134.09" cy="88.02" r="7.09"/><circle class="cls-5" cx="221.37" cy="88.02" r="13.47"/><circle class="cls-6" cx="221.37" cy="88.02" r="7.09"/><path class="cls-3" d="M255.63,144.23s-25.39-1.36-30.88,32.15,63,34.17,63,5.25C287.71,162.9,271.22,142.76,255.63,144.23Z" transform="translate(-77.68 -42.67)"/><ellipse class="cls-1" cx="178.34" cy="108.46" rx="9.56" ry="6.97"/><path class="cls-7" d="M239.38,173.32c-10.09,9.59,19.35,27.88,16.64-15.21" transform="translate(-77.68 -42.67)"/><path class="cls-7" d="M272.93,173.32c10.08,9.59-19.36,27.88-16.64-15.21" transform="translate(-77.68 -42.67)"/><path class="cls-8" d="M154.77,504s46.47,21.73,52.18-10.66-47.88-124.7-5.28-168.23C239.9,286,303.23,293.3,326.86,341.17c20.77,42.08-32,139.51-16.4,158.85,14.14,17.57,36.18,10.07,36.18,10.07C308.28,531.55,194.93,527.93,154.77,504Z" transform="translate(-77.68 -42.67)"/><circle class="cls-2" cx="39.76" cy="449.44" r="15.84"/><circle class="cls-2" cx="13.1" cy="445.96" r="7.87"/><circle class="cls-2" cx="20.97" cy="427" r="6.61"/><circle class="cls-2" cx="38.41" cy="424.35" r="5.74"/><circle class="cls-2" cx="114.25" cy="124.34" r="3.55"/><circle class="cls-2" cx="137.63" cy="121.79" r="3.55"/><circle class="cls-2" cx="130.54" cy="138.53" r="3.55"/><circle class="cls-2" cx="114.25" cy="137.46" r="3.55"/><circle class="cls-2" cx="125.72" cy="127.89" r="3.55"/><circle class="cls-2" cx="221.37" cy="123.58" r="3.55"/><circle class="cls-2" cx="236.84" cy="123.58" r="3.55"/><circle class="cls-2" cx="228.46" cy="133.43" r="3.55"/><circle class="cls-2" cx="239.5" cy="138.06" r="3.55"/><circle class="cls-2" cx="249.8" cy="127.13" r="3.55"/></svg>