<?xml version="1.0" encoding="utf-8"?>
<!-- Generator: Adobe Illustrator 24.1.0, SVG Export Plug-In . SVG Version: 6.00 Build 0)  -->
<svg version="1.1" id="Layer_1" xmlns="http://www.w3.org/2000/svg" xmlns:xlink="http://www.w3.org/1999/xlink" x="0px" y="0px"
	 viewBox="0 0 297.4 325.4" style="enable-background:new 0 0 297.4 325.4;" xml:space="preserve">
<style type="text/css">
	.st0{fill:#58595B;}
	.st1{fill:#414042;}
	.st2{fill:#F1F2F2;}
	.st3{fill:#6D6E71;}
	.st4{fill:#FFFFFF;}
	.st5{fill:none;stroke:#231F20;stroke-width:2;stroke-linecap:round;stroke-linejoin:round;}
	.st6{fill:#E6E7E8;}
	.st7{fill:#EE222B;}
	.st8{fill:#231F20;stroke:#231F20;stroke-width:2;stroke-linecap:round;stroke-linejoin:round;}
</style>
<g id="Layer_2_1_">
	<g id="Layer_3">
		<ellipse class="st0" cx="23.7" cy="299.8" rx="23.7" ry="21.8"/>
		<path class="st1" d="M286.1,130.3c0,0.2,0,0.4,0,0.6c0,3.4-2.8,6.2-6.2,6.2c0,0,0,0,0,0c-0.9,0-1.8-0.2-2.6-0.6
			C269,145,259.8,153,257,189.2c-0.1,1.4-0.2,2.7-0.4,4.1c1.3,0.5,2.4,1.3,3.4,2.2c3.9,3.9,3.9,10.3,0,14.2c-1.4,1.4-3.9,2.4-6.7,3
			c-9.3,41.3-31.3,71.4-31.3,71.4l-40.3,15.6l6.6-180.4c0,0-3.6-45.1,47-55.7c41.7-8.8,56.7,19.3,55.2,43.6c4.1,1.5,6.8,5.4,6.8,9.8
			C297.4,126.2,291.4,129.4,286.1,130.3z"/>
		<ellipse class="st0" cx="205.4" cy="299.8" rx="23.7" ry="21.8"/>
		<circle class="st1" cx="202.3" cy="305.4" r="10.7"/>
		<circle class="st1" cx="204.7" cy="287.4" r="5.3"/>
		<circle class="st1" cx="217.5" cy="292.7" r="4.5"/>
		<circle class="st1" cx="219.2" cy="304.5" r="3.9"/>
		<path class="st2" d="M240.8,250.3c0,0-49.2-13.9-52.8-24.5l14.4-30.5c0,0,9.1,18.1,50.9,17.4C255.9,212.7,241.1,254,240.8,250.3z"
			/>
		<path class="st2" d="M258.3,176.8c0,0-56.3,9.1-70.3-37.6s21-9.5,21-9.5s49.9,24.6,59.6,16.9C268.6,146.5,261.4,156.2,258.3,176.8
			z"/>
		<path class="st1" d="M166,32.6c2.7-5.2,4.7-10.2,5.2-14.3c2.9-22.5-20.5-22.5-28.8-9.5c-1,1.6-2.2,3.6-3.4,5.9"/>
		<path class="st0" d="M160.4,24.2c1.2-2.2,2.1-4.5,2.6-6.9c1.4-10.9-9.9-10.9-14-4.6c-0.5,0.8-1.1,1.8-1.7,2.9"/>
		<path class="st1" d="M68.7,33.6C66,28.4,64,23.4,63.5,19.3C60.6-3.2,83.9-3.2,92.2,9.8c1,1.6,2.2,3.6,3.4,6"/>
		<path class="st0" d="M74.2,25.2c-1.2-2.2-2.1-4.5-2.5-6.9c-1.4-10.9,9.9-10.9,14-4.6c0.5,0.8,1,1.8,1.7,2.9"/>
		<path class="st3" d="M181.7,315.8c-3.5,3-91.1,17.6-129.6-4.1c-35.2-19.8-41.7-149.3,3.8-263.1C77-4.2,159-4.4,181.7,48.5
			C236,175.3,226.9,277,181.7,315.8z"/>
		<path class="st1" d="M97.4,73c-10.7,3-42.2,6.6-49.4,7.4l-1.4,0.2h-0.1c-3.7,0-6.6-3-6.6-6.6s3-6.6,6.6-6.6c0,0,0,0,0,0
			c0.5,0,1,0.1,1.5,0.2v-0.2c-3.2-1.8-4.3-5.8-2.5-9c1.2-2.1,3.4-3.4,5.8-3.3c7.1,0,33.4-10.1,45.6-8C116.1,50.3,110.2,69.5,97.4,73
			z"/>
		<path class="st1" d="M143.5,73c10.7,3,42.2,6.6,49.4,7.4l1.4,0.2h0.1c3.7,0,6.6-3,6.6-6.6c0-3.7-3-6.6-6.6-6.6
			c-0.5,0-1,0.1-1.4,0.2v-0.2c3.2-1.8,4.3-5.8,2.5-9c-1.2-2.1-3.4-3.4-5.8-3.3c-7.1,0-33.4-10.1-45.6-8
			C124.9,50.3,130.8,69.5,143.5,73z"/>
		<circle class="st4" cx="90.6" cy="59.5" r="9.1"/>
		<circle class="st4" cx="149.6" cy="59.5" r="9.1"/>
		<path class="st2" d="M120.4,68.6c0,0-17.2-0.9-20.9,21.7s42.6,23.1,42.5,3.5C142,81.2,130.9,67.6,120.4,68.6z"/>
		<ellipse class="st0" cx="120.5" cy="73.3" rx="6.5" ry="4.7"/>
		<path class="st5" d="M120.5,78c0.4,28.1-23.3,17.1-14.1,4.6"/>
		<path class="st5" d="M133.9,81.1c12.4,12.5-12.9,27.5-13.2-3.1"/>
		<path class="st6" d="M52.1,311.7c0,0,31.4,14.7,35.3-7.2S55,220.2,83.8,190.8c25.8-26.4,68.6-21.5,84.6,10.9
			c14,28.4-21.6,94.2-11.1,107.3c9.6,11.9,24.4,6.8,24.4,6.8C155.8,330.3,79.2,327.9,52.1,311.7z"/>
		<circle class="st1" cx="26.9" cy="303.6" r="10.7"/>
		<circle class="st1" cx="8.9" cy="301.3" r="5.3"/>
		
			<ellipse transform="matrix(0.9999 -1.514629e-02 1.514629e-02 0.9999 -4.3678 0.2476)" class="st1" cx="14.2" cy="288.5" rx="4.5" ry="4.5"/>
		<circle class="st1" cx="26" cy="286.7" r="3.9"/>
		<circle class="st1" cx="77.2" cy="84" r="2.4"/>
		<circle class="st1" cx="93" cy="82.3" r="2.4"/>
		<circle class="st1" cx="88.2" cy="93.6" r="2.4"/>
		<circle class="st1" cx="77.2" cy="92.9" r="2.4"/>
		<circle class="st1" cx="84.9" cy="86.4" r="2.4"/>
		<circle class="st1" cx="149.6" cy="83.5" r="2.4"/>
		<circle class="st1" cx="160" cy="83.5" r="2.4"/>
		<circle class="st1" cx="154.4" cy="90.1" r="2.4"/>
		<circle class="st1" cx="161.8" cy="93.3" r="2.4"/>
		<circle class="st1" cx="168.8" cy="85.9" r="2.4"/>
		<path class="st7" d="M90.6,58.5c0-2,1.6-3.5,3.5-3.5s3.5,1.6,3.5,3.5c0,2.9-4.5,6.1-7.1,6.1c-3.2,0-7.1-3.3-7.1-6.1
			c0.1-1.9,1.6-3.4,3.5-3.5C89,55,90.6,56.6,90.6,58.5L90.6,58.5"/>
		<path class="st5" d="M77.2,53.6c0,0,15.5-1.5,22.5-10"/>
		<path class="st7" d="M149.8,58c0-2-1.6-3.5-3.5-3.5c-2,0-3.5,1.6-3.5,3.5c0,2.9,4.5,6.1,7.1,6.1c3.2,0,7.1-3.3,7.1-6.1
			c-0.1-1.9-1.6-3.4-3.5-3.5C151.4,54.5,149.8,56,149.8,58"/>
		<path class="st5" d="M163.2,53.1c0,0-15.5-1.4-22.5-10"/>
		<path class="st8" d="M114.6,95.5c0,0,5.8,7.4,12.9,0.2c-0.4-0.4-5.6-1.2-6.4-11C121,84.7,117.4,96.3,114.6,95.5z"/>
	</g>
</g>
</svg>
