<svg xmlns="http://www.w3.org/2000/svg" viewBox="0 0 297.37 325.36"><defs><style>.cls-1{fill:#58595b;}.cls-2{fill:#414042;}.cls-3{fill:#f1f2f2;}.cls-4{fill:#6d6e71;}.cls-5{fill:#fff;}.cls-6{fill:#231f20;}.cls-7{fill:#e6e7e8;}.cls-8{fill:none;stroke:#231f20;stroke-linecap:round;stroke-linejoin:round;stroke-width:2px;}</style></defs><g id="Layer_2" data-name="Layer 2"><g id="Layer_2-2" data-name="Layer 2"><ellipse class="cls-1" cx="23.74" cy="299.77" rx="23.74" ry="21.84"/><path class="cls-2" d="M286.09,130.28c0,.22,0,.43,0,.65a6.21,6.21,0,0,1-6.22,6.22,6.11,6.11,0,0,1-2.6-.58C269.05,145,259.83,153,257,189.19c-.11,1.37-.24,2.74-.38,4.09a9.87,9.87,0,0,1,3.41,2.23,10.06,10.06,0,0,1,0,14.21c-1.38,1.38-3.86,2.43-6.66,3-9.31,41.32-31.27,71.41-31.27,71.41l-40.34,15.6,6.65-180.38s-3.55-45.13,47-55.74c41.69-8.76,56.73,19.27,55.18,43.57a10.48,10.48,0,0,1,6.84,9.82C297.37,126.17,291.42,129.39,286.09,130.28Z"/><ellipse class="cls-1" cx="205.45" cy="299.77" rx="23.74" ry="21.84"/><circle class="cls-2" cx="202.27" cy="305.37" r="10.7"/><circle class="cls-2" cx="204.68" cy="287.36" r="5.32"/><circle class="cls-2" cx="217.47" cy="292.72" r="4.46"/><circle class="cls-2" cx="219.22" cy="304.52" r="3.88"/><path class="cls-3" d="M240.78,250.31S191.6,236.44,188,225.85l14.42-30.54s9.13,18.12,50.86,17.45C255.87,212.72,241.07,254,240.78,250.31Z"/><path class="cls-3" d="M258.33,176.75S202,185.8,188,139.1,209,129.56,209,129.56s49.93,24.59,59.61,16.94C268.58,146.5,261.41,156.21,258.33,176.75Z"/><path class="cls-2" d="M166,32.58c2.67-5.24,4.69-10.22,5.21-14.28,2.91-22.48-20.46-22.51-28.77-9.49-1,1.56-2.16,3.59-3.43,5.95"/><path class="cls-1" d="M160.44,24.2A23.17,23.17,0,0,0,163,17.27c1.41-10.93-9.94-10.94-14-4.62-.49.76-1.05,1.75-1.67,2.9"/><path class="cls-2" d="M68.68,33.61C66,28.37,64,23.39,63.48,19.33,60.57-3.16,83.94-3.18,92.25,9.83c1,1.57,2.16,3.6,3.43,6"/><path class="cls-1" d="M74.22,25.23a22.9,22.9,0,0,1-2.53-6.93c-1.41-10.93,9.94-10.94,14-4.62.48.76,1,1.75,1.67,2.89"/><path class="cls-4" d="M181.71,315.79c-3.48,3-91.09,17.58-129.63-4.13C16.9,291.85,10.43,162.35,55.91,48.52,77-4.17,159-4.43,181.71,48.52,236,175.28,226.89,277,181.71,315.79Z"/><path class="cls-2" d="M97.43,73c-10.72,3-42.19,6.63-49.38,7.44l-1.37.16h-.11a6.62,6.62,0,1,1,0-13.24,6.32,6.32,0,0,1,1.45.16l0-.16A6.61,6.61,0,0,1,51.35,55c7.07,0,33.39-10.12,45.58-8C116.1,50.3,110.2,69.46,97.43,73Z"/><path class="cls-2" d="M143.54,73c10.72,3,42.19,6.63,49.38,7.44l1.37.16h.11a6.62,6.62,0,0,0,0-13.24,6.32,6.32,0,0,0-1.45.16l0-.16A6.61,6.61,0,0,0,189.62,55c-7.07,0-33.39-10.12-45.58-8C124.87,50.3,130.77,69.46,143.54,73Z"/><circle class="cls-5" cx="90.59" cy="59.46" r="9.1"/><circle class="cls-6" cx="92.99" cy="55.9" r="4.79"/><circle class="cls-5" cx="149.55" cy="59.46" r="9.1"/><path class="cls-3" d="M120.22,68.62s-17.15-.93-20.86,21.72,42.55,23.08,42.54,3.54C141.9,81.23,130.76,67.62,120.22,68.62Z"/><ellipse class="cls-1" cx="120.48" cy="73.28" rx="6.46" ry="4.71"/><path class="cls-7" d="M52.08,311.66s31.4,14.68,35.26-7.2S55,220.21,83.77,190.8c25.83-26.39,68.61-21.48,84.58,10.87,14,28.43-21.6,94.25-11.08,107.32,9.55,11.87,24.44,6.8,24.44,6.8C155.79,330.29,79.21,327.85,52.08,311.66Z"/><circle class="cls-2" cx="26.86" cy="303.64" r="10.7"/><circle class="cls-2" cx="8.85" cy="301.29" r="5.32"/><circle class="cls-2" cx="14.16" cy="288.48" r="4.46"/><circle class="cls-2" cx="25.95" cy="286.69" r="3.88"/><circle class="cls-2" cx="77.19" cy="84.01" r="2.4"/><circle class="cls-2" cx="92.99" cy="82.28" r="2.4"/><circle class="cls-2" cx="88.19" cy="93.59" r="2.4"/><circle class="cls-2" cx="77.19" cy="92.87" r="2.4"/><circle class="cls-2" cx="84.94" cy="86.4" r="2.4"/><circle class="cls-2" cx="149.55" cy="83.49" r="2.4"/><circle class="cls-2" cx="160.01" cy="83.49" r="2.4"/><circle class="cls-2" cx="154.35" cy="90.14" r="2.4"/><circle class="cls-2" cx="161.81" cy="93.27" r="2.4"/><circle class="cls-2" cx="168.77" cy="85.89" r="2.4"/><line class="cls-8" x1="81.49" y1="44.86" x2="107.81" y2="57.37"/><path class="cls-8" d="M121.41,99.71s-3.69-19.58,14.18-9.57"/><path class="cls-8" d="M120.48,78s.2,3.79,3.34,10.29"/><circle class="cls-6" cx="146.55" cy="56.57" r="4.79"/><line class="cls-8" x1="158.05" y1="45.53" x2="131.73" y2="58.04"/></g></g></svg>