<svg xmlns="http://www.w3.org/2000/svg" viewBox="0 0 578.41 723.54"><defs><style>.cls-1{fill:#00404f;}.cls-2,.cls-5{fill:none;stroke-linecap:square;}.cls-2{stroke:#061d2f;stroke-width:3px;}.cls-2,.cls-4,.cls-5,.cls-7{stroke-miterlimit:10;}.cls-3,.cls-4{fill:#061d2f;}.cls-4,.cls-7{stroke:#fff;stroke-linecap:round;}.cls-5{stroke:#f58220;stroke-width:2px;}.cls-6,.cls-7{fill:#f58220;}</style></defs><g id="Layer_2" data-name="Layer 2"><g id="Layer_13" data-name="Layer 13"><circle class="cls-1" cx="300.03" cy="353.22" r="198.5"/><path class="cls-2" d="M41.54,489s-1.9-6.17,2.89-27.06c3.21-14,9.41-34.59,21.19-64.35,13.77-34.85,35.18-82.24,68.34-146.3C146.62,226.82,161,207,176.54,191a194.73,194.73,0,0,1,90.59-53.54c48.82-13.16,97.93-7.24,134.23,1.68,1.84.45,3.65.92,5.43,1.39C438.4,148.77,459,158.87,459,158.87"/><path class="cls-3" d="M155.94,94.22c1.28,32.88,4.8,115,4.8,115s34.77-59.55,40.65-92.5C207.4,83.08,199.52,0,199.52,0S154.34,53,155.94,94.22Z"/><path class="cls-3" d="M228,91.24c-3.4,18.92-11.71,66.27-11.71,66.27s26.85-24.94,34.26-42.09c7.56-17.53,13.56-66.51,13.56-66.51S232.25,67.54,228,91.24Z"/><path class="cls-3" d="M195.25,225.72c-13.81.68-48.3,2.54-48.3,2.54s25,17.4,38.77,20.32c14.13,3,49-1.07,49-1.07S212.53,224.87,195.25,225.72Z"/><path class="cls-3" d="M96.39,164.81c11,24.68,38.91,86.23,38.91,86.23s9.21-55.62,3.78-82.46C133.53,141.16,102,80.17,102,80.17S82.55,133.91,96.39,164.81Z"/><path class="cls-4" d="M109.05,324.23c32.74,16.13,51.13,16.47,68.3,19.78"/><path class="cls-3" d="M38.1,205c19.59,28.77,68.84,100.43,68.84,100.43s.2-74.18-12.55-107.26c-13-33.81-67-103.73-67-103.73S13.57,169,38.1,205Z"/><path class="cls-3" d="M8.55,294.54c15.91,33.75,56,118,56,118s7.91-72.76-.94-108.83C54.54,266.83,9.75,183,9.75,183S-11.37,252.27,8.55,294.54Z"/><path class="cls-3" d="M306.16,88.18c-3.71,12.11-12.75,42.41-12.75,42.41s31.33-15.82,39.8-26.78c8.65-11.19,14.94-42.54,14.94-42.54S310.8,73,306.16,88.18Z"/><path class="cls-3" d="M353.38,105c-4.48,7.85-15.57,27.55-15.57,27.55s20.19-4.72,27-10.76c7-6.16,16.79-27.19,16.79-27.19S359,95.15,353.38,105Z"/><path class="cls-3" d="M214.65,260.76c-24.31.83-85,3.24-85,3.24s41.8,36,65.73,42.41c24.45,6.55,86.13-.24,86.13-.24S245.08,259.72,214.65,260.76Z"/><path class="cls-3" d="M265.16,192.43c-23.12-2.88-80.87-9.63-80.87-9.63s41.23,54.91,64.27,67.39c23.54,12.75,82,13.81,82,13.81S294.1,196,265.16,192.43Z"/><path class="cls-3" d="M280.89,154.55c-11.88-2.69-41.59-9.2-41.59-9.2s18.37,28.16,29.67,35.36c11.54,7.35,41.95,11.23,41.95,11.23S295.76,157.92,280.89,154.55Z"/><path class="cls-3" d="M341.1,159.34c-10.48-8-36.78-27.88-36.78-27.88s5.57,37.45,13.49,49.92c8.08,12.74,36.24,30.16,36.24,30.16S354.23,169.39,341.1,159.34Z"/><path class="cls-3" d="M186,328.05c-24.09-3.31-84.36-11.24-84.36-11.24s35.1,42.57,57.59,52.95c23,10.6,84.93,14.37,84.93,14.37S216.15,332.18,186,328.05Z"/><path class="cls-5" d="M577.39,272.45s.72,6.42-7.86,26.05c-5.75,13.15-15.68,32.24-32.79,59.3-20,31.67-49.85,74.26-94.35,131-17,21.67-34.82,38.49-53.05,51.36a194.84,194.84,0,0,1-99,35.76c-50.42,3.86-97.57-11.09-131.58-26.61-1.72-.78-3.41-1.58-5.07-2.37-29.52-14-47.91-27.78-47.91-27.78"/><path class="cls-6" d="M391.6,639.07c4.85-32.55,16.66-113.91,16.66-113.91S363,577.21,351.13,608.49c-12.16,32-19.88,115-19.88,115S385.52,679.83,391.6,639.07Z"/><path class="cls-6" d="M320.24,628.6c6.86-18,23.83-62.93,23.83-62.93s-31,19.5-41.49,35c-10.69,15.81-25.7,62.82-25.7,62.82S311.65,651.09,320.24,628.6Z"/><path class="cls-6" d="M377.42,502.56c13.7,1.9,47.93,6.48,47.93,6.48S404.07,487.3,391,481.87c-13.32-5.56-48.36-8.07-48.36-8.07S360.28,500.18,377.42,502.56Z"/><path class="cls-6" d="M463.23,580.78c-6.27-26.3-22.2-92-22.2-92s-19.39,52.94-19,80.32c.35,28,20,93.77,20,93.77S471.09,613.72,463.23,580.78Z"/><path class="cls-7" d="M480.43,421.79c-29.17-21.94-47.17-25.69-63.43-32.14"/><path class="cls-6" d="M528,552.11c-13.9-31.91-49-111.47-49-111.47s-14,72.84-7.61,107.72c6.5,35.63,46.52,114.37,46.52,114.37S545.39,592.07,528,552.11Z"/><path class="cls-6" d="M573.66,469.65c-9.36-36.13-33.06-126.33-33.06-126.33s-21.3,70-19.31,107.11c2,37.89,30.45,128.59,30.45,128.59S585.37,514.89,573.66,469.65Z"/><path class="cls-6" d="M242.87,617.07c5.9-11.2,20.42-39.29,20.42-39.29s-33.73,9.72-44.09,18.91c-10.58,9.38-22.59,39-22.59,39S235.49,631.11,242.87,617.07Z"/><path class="cls-6" d="M199.6,591.79c5.86-6.88,20.42-24.18,20.42-24.18s-20.72.89-28.54,5.55c-8,4.76-21.55,23.6-21.55,23.6S192.26,600.41,199.6,591.79Z"/><path class="cls-6" d="M364.88,464.52c24,3.7,84.16,12.63,84.16,12.63S414.65,434,392.33,423.26c-22.8-11-84.68-15.78-84.68-15.78S334.78,459.88,364.88,464.52Z"/><path class="cls-6" d="M302.54,522.27c22.18,7.12,77.67,24.49,77.67,24.49s-30.3-61.61-50.62-78.16c-20.76-16.9-78-28.81-78-28.81S274.77,513.34,302.54,522.27Z"/><path class="cls-6" d="M280,556.56c11.18,4.85,39.15,16.77,39.15,16.77s-12.81-31.09-22.58-40.25c-10-9.37-39.12-18.84-39.12-18.84S266.05,550.49,280,556.56Z"/><path class="cls-6" d="M221.77,540.66c8.8,9.84,30.95,34.23,30.95,34.23s1.49-37.83-4-51.56c-5.57-14-30-36.36-30-36.36S210.74,528.34,221.77,540.66Z"/><path class="cls-6" d="M405.55,403.74c23.06,7.72,80.8,26.72,80.8,26.72s-26.57-48.35-46.74-62.73C419,353,358.83,337.82,358.83,337.82S376.67,394.06,405.55,403.74Z"/></g></g></svg>