<svg xmlns="http://www.w3.org/2000/svg" viewBox="0 0 1920 1080"><defs><style>.cls-1,.cls-3,.cls-4{fill:none;stroke-miterlimit:10;}.cls-1,.cls-3{stroke:#fff;}.cls-1,.cls-4{stroke-linecap:square;stroke-width:2px;}.cls-2{fill:#fff;}.cls-3{stroke-linecap:round;}.cls-4{stroke:#f58220;}.cls-5{fill:#f58220;}</style></defs><g id="Layer_4" data-name="Layer 4"><path class="cls-1" d="M2158.42,525.11s-9,3.41-39.43-4.26c-20.36-5.13-50.31-15.22-93.55-34.62C1974.82,463.55,1906,428.12,1813.08,373c-35.48-21-64.2-45.15-87.33-71.29-41.37-46.72-64.81-100-76.67-153.53-18.43-83.13-9-167.22,4.6-229.5q1-4.73,2.11-9.3c12.6-54.25,27.67-89.76,27.67-89.76"/><path class="cls-2" d="M1584.28,339.35c48-3,167.9-11.06,167.9-11.06s-86.33-58-134.3-67.2c-49-9.43-170.36,6.08-170.36,6.08S1524.18,343.11,1584.28,339.35Z"/><path class="cls-3" d="M1738,324c-111.08-36.52-143.41-6.75-213.93-42.15"/><path class="cls-2" d="M1581.09,216.24c27.55,5.35,96.5,18.38,96.5,18.38s-35.95-45.29-60.87-57.52c-25.45-12.5-96.81-21.55-96.81-21.55S1546.58,209.55,1581.09,216.24Z"/><path class="cls-3" d="M1670.54,230.1c-54.43-36.85-78.94-24.82-110.88-55.09"/><path class="cls-2" d="M1776.77,268.9c.77,23.58,2.94,82.49,2.94,82.49s25.78-43.08,30.26-66.78c4.58-24.22-.77-83.76-.77-83.76S1775.81,239.36,1776.77,268.9Z"/><path class="cls-3" d="M1781.72,344.35c16.85-55,4.43-70.63,20.38-105.7"/><path class="cls-2" d="M1686.33,439.39c36.18-19.5,126.43-68.66,126.43-68.66s-81-14.36-120.26-4.41C1652.41,376.49,1562.92,432,1562.92,432S1641,463.82,1686.33,439.39Z"/><path class="cls-3" d="M1800.73,372.44c-94.67,11.22-112.06,46-175.24,43.6"/><path class="cls-2" d="M1914.37,425.57s42-54.71,60.48-95l-51.34-67.77c-3.39,8.7-5.52,17.32-5.75,25.51C1916.64,327.56,1914.37,425.57,1914.37,425.57Z"/><path class="cls-3" d="M1919.12,413.81c24.06-56.37,24.85-87.82,30-117.26"/><path class="cls-2" d="M1744.06,538c42.28-34.21,147.62-120.17,147.62-120.17S1783.47,419.37,1735,442C1685.46,465.07,1582.58,559,1582.58,559S1691.11,580.86,1744.06,538Z"/><path class="cls-3" d="M1876.51,423.06c-119.93,38-134.32,87.31-216.66,99.85"/><path class="cls-2" d="M1874.19,586.33c49.51-28,173-98.6,173-98.6s-106-11.72-158.79,4.3c-53.91,16.37-177,95-177,95S1812.2,621.43,1874.19,586.33Z"/><path class="cls-3" d="M2031.15,490.91C1904.92,513.16,1879,559.26,1795.6,561.4"/><path class="cls-2" d="M1577.88,82.71c17.6,6,61.66,20.74,61.66,20.74S1617,50.29,1601.12,36.08c-16.19-14.51-61.84-24.48-61.84-24.48S1555.83,75.15,1577.88,82.71Z"/><path class="cls-3" d="M1635.08,98.18c-34.52-43-50.35-28.53-70.52-64"/><path class="cls-2" d="M1603.14,1.58c11.39,7.46,39.95,25.93,39.95,25.93s-6.57-34.4-15.26-45.91c-8.89-11.76-39.41-28-39.41-28S1588.88-7.77,1603.14,1.58Z"/><path class="cls-3" d="M1640.87,23.57c-16.81-31.66-30.57-27.51-38.57-51.66"/><path class="cls-2" d="M1828.21,234.86c.82,41.53,3.36,145.29,3.36,145.29s53.19-72.35,62.93-113.42c9.94-41.94,1-147.23,1-147.23S1827.18,182.86,1828.21,234.86Z"/><path class="cls-3" d="M1835.83,368c35.6-94.5,11.1-123.5,44.25-183"/><path class="cls-2" d="M1729.32,150.22C1724.75,189.8,1714,288.68,1714,288.68s80.77-71.83,99.35-111.53c19-40.55,21.45-140.55,21.45-140.55S1735,100.65,1729.32,150.22Z"/><path class="cls-3" d="M1721.31,276.9c60.34-92,31.64-118.43,84-177"/><path class="cls-2" d="M1674.31,124.27c-4.12,20.37-14.1,71.3-14.1,71.3s41.39-32.1,52.07-51.58c10.91-19.91,17.06-72,17.06-72S1679.46,98.75,1674.31,124.27Z"/><path class="cls-3" d="M1664.23,189.91c32.84-44,20.72-59.74,48.13-86.83"/><path class="cls-2" d="M1682.26,21.21C1670.38,39.33,1641,84.78,1641,84.78s54.73-10.46,73-24.29c18.72-14.14,44.58-62.7,44.58-62.7S1697.13-1.47,1682.26,21.21Z"/><path class="cls-3" d="M1647.26,81.23c50.38-26.74,43.77-48.64,82.19-61.35"/></g><g id="Layer_5" data-name="Layer 5"><path class="cls-4" d="M39.47,604.22S374.61,946.34,444,1284.62c1.53,7.5,3.25,14.9,5.09,22.13q3.51,13.76,7.76,26.89"/><path class="cls-5" d="M-25.11,733.7c51.12-2.49,178.81-9.32,178.81-9.32s-91-62.93-141.92-73.45c-52-10.75-181.36,4-181.36,4S-89.11,736.82-25.11,733.7Z"/><path class="cls-3" d="M138.64,719.57c-117.66-40.48-152.5-9.27-227-48"/><path class="cls-5" d="M145,545.37c1,51.16,4.14,179,4.14,179s65.54-89.15,77.53-139.74c12.25-51.68,1.26-181.39,1.26-181.39S143.69,481.3,145,545.37Z"/><path class="cls-3" d="M154.35,709.45C198.21,593,168,557.29,208.86,483.91"/><path class="cls-5" d="M-27.19,825c65.17-6.37,228-22.88,228-22.88s-111-58.3-175-65.4C-39.49,729.49-205,754.3-205,754.3S-108.79,833-27.19,825Z"/><path class="cls-3" d="M182,798.29C35.45,765.17-11.15,800-103,765.54"/><path class="cls-5" d="M215,628c-2.5,52.8-8,184.69-8,184.69S297,715.72,316,662.55C335.35,608.22,331,475,331,475S218.16,561.9,215,628Z"/><path class="cls-3" d="M214.81,796.91c64.39-123.6,28.66-158.28,86-237.14"/><path class="cls-5" d="M93.88,920.91c50.42-4.93,176.4-17.73,176.4-17.73s-85.88-45-135.36-50.52c-50.54-5.59-178.6,13.62-178.6,13.62S30.75,927.09,93.88,920.91Z"/><path class="cls-3" d="M255.74,900.2c-113.39-25.56-149.45,1.37-220.52-25.26"/><path class="cls-5" d="M298.8,782.65c-1.94,40.82-6.22,142.77-6.22,142.77s69.58-75,84.29-116.1c15-42,11.68-145,11.68-145S301.24,731.54,298.8,782.65Z"/><path class="cls-3" d="M298.6,913.2c49.84-95.55,22.2-122.35,66.59-183.32"/><path class="cls-5" d="M172.7,1040.87c51.11-2.5,178.8-9.32,178.8-9.32s-91-62.93-141.92-73.45c-52-10.76-181.35,4-181.35,4S108.69,1044,172.7,1040.87Z"/><path class="cls-3" d="M336.44,1026.74c-117.66-40.48-152.49-9.27-227-48"/><path class="cls-5" d="M370.5,917.6c1,51.16,4.14,179,4.14,179s65.54-89.15,77.53-139.74c12.26-51.68,1.27-181.4,1.27-181.4S369.23,853.53,370.5,917.6Z"/><path class="cls-3" d="M379.89,1081.68c43.86-116.44,13.67-152.16,54.51-225.54"/><path class="cls-5" d="M255.77,1170.81c47.84,11.44,167.4,39.32,167.4,39.32s-79.76-98.24-126.37-124.67c-47.62-27-169.35-46.2-169.35-46.2S195.86,1156.49,255.77,1170.81Z"/><path class="cls-5" d="M-19.3,643.45c26.3-1,92-3.78,92-3.78s-46.82-25.54-73-29.81c-26.76-4.37-93.29,1.62-93.29,1.62S-52.22,644.72-19.3,643.45Z"/><path class="cls-3" d="M64.94,637.72C4.41,621.29-13.51,634-51.85,618.25"/><path class="cls-5" d="M60.58,571.73c10.09,26.91,35.7,94,35.7,94S126,601,125.15,570.93c-.86-30.7-32.34-96.7-32.34-96.7S48,538,60.58,571.73Z"/><path class="cls-3" d="M97.23,656.4c9.49-73.48-18.26-84.45-3-134.26"/><path class="cls-5" d="M-14,526.38c16.65,23.87,58.53,83.36,58.53,83.36s4-56.73-6.14-83.25c-10.32-27.09-56.64-85.7-56.64-85.7S-34.83,496.49-14,526.38Z"/><path class="cls-3" d="M42.4,601.53C27.13,536.83,1.07,526.8-2.09,483.06"/></g></svg>