<?xml version="1.0" encoding="utf-8"?>
<!-- Generator: Adobe Illustrator 24.1.0, SVG Export Plug-In . SVG Version: 6.00 Build 0)  -->
<svg version="1.1" id="Layer_1" xmlns="http://www.w3.org/2000/svg" xmlns:xlink="http://www.w3.org/1999/xlink" x="0px" y="0px"
	 viewBox="0 0 1920 1080" style="enable-background:new 0 0 1920 1080;" xml:space="preserve">
<style type="text/css">
	.st0{fill:none;stroke:#FFFFFF;stroke-width:2;stroke-linecap:square;stroke-miterlimit:10;}
	.st1{fill:#FFFFFF;}
	.st2{fill:none;stroke:#F58220;stroke-width:2;stroke-linecap:square;stroke-miterlimit:10;}
	.st3{fill:#F58220;}
	.st4{fill:none;stroke:#FFFFFF;stroke-linecap:round;stroke-miterlimit:10;}
</style>
<g id="Layer_8">
	<path class="st0" d="M-90,1275.8c0,0,0.3-9.8,21-35.2c13.9-17,36.9-41.2,75-74.1c44.6-38.6,110-89.2,205.7-154.8
		c36.5-25,73.4-42.6,109.9-54.1c65.3-20.6,129.7-22,189.6-12.4c92.9,14.9,175,56.2,233,92.9c2.9,1.9,5.8,3.7,8.6,5.6
		c50.2,32.7,80.2,60.5,80.2,60.5"/>
	<path class="st1" d="M343,811c-17.2,46-59.7,161.2-59.7,161.2s95.8-58.3,125.6-99.6c30.3-42.2,65.8-161.6,65.8-161.6
		S364.5,753.3,343,811z"/>
	<path class="st1" d="M470.3,855.5c-17.1,23.7-59.6,83.1-59.6,83.1s61.6-16.1,84.6-34.7c23.6-19,63-82.2,63-82.2
		S491.8,825.8,470.3,855.5z"/>
	<path class="st1" d="M333.7,1018c-24.5-8.4-85.7-29.1-85.7-29.1s33.2,40.7,55.6,54.1c22.9,13.6,86.1,31.6,86.1,31.6
		S364.3,1028.6,333.7,1018z"/>
	<path class="st1" d="M197.4,867.7c4.7,41.3,16.8,144.7,16.8,144.7s49-70.2,55.4-110.7c6.5-41.4-12.4-146.5-12.4-146.5
		S191.6,815.9,197.4,867.7z"/>
	<path class="st1" d="M72,883.6c17.1,52.7,60.6,184.4,60.6,184.4s44.2-101.7,41.6-155.8c-2.7-55.2-55.4-187.6-55.4-187.6
		S50.5,817.5,72,883.6z"/>
	<path class="st1" d="M-32.5,986.5c7.8,57.1,27.8,199.8,27.8,199.8s56.8-94.6,62.8-150.1c6-56.7-22.4-202-22.4-202
		S-42.2,915-32.5,986.5z"/>
	<path class="st1" d="M491.4,904.1c-13.6,14.1-47.3,49.6-47.3,49.6s64-0.6,85.2-9.9c21.7-9.5,51.2-48.3,51.2-48.3
		S508.4,886.4,491.4,904.1z"/>
	<path class="st1" d="M563.7,959c-12.5,7.8-43.4,27.3-43.4,27.3s38,7.2,53.5,3.5c15.8-3.8,45.3-26,45.3-26S579.3,949.3,563.7,959z"
		/>
	<path class="st1" d="M346.8,1079.3c-42.9-15.3-150.1-53-150.1-53s51.6,77.7,89.5,102.6c38.7,25.5,150.3,57.8,150.3,57.8
		S400.4,1098.4,346.8,1079.3z"/>
	<path class="st1" d="M475.2,1019.5C436.6,1000,340,951.7,340,951.7s39.4,103.2,72.2,135.9c33.5,33.4,134.8,74.3,134.8,74.3
		S523.5,1044,475.2,1019.5z"/>
	<path class="st1" d="M525.1,978.1c-19.1-11.7-67-40.7-67-40.7s15.4,51.1,30.8,68.6c15.8,17.9,66.5,43.7,66.5,43.7
		S549,992.8,525.1,978.1z"/>
	<path class="st1" d="M627.2,1025.3c-13.5-18.1-47.6-63.1-47.6-63.1s-12.5,55.2-6,77.7c6.5,22.9,45.3,65.9,45.3,65.9
		S644.1,1048,627.2,1025.3z"/>
</g>
<g id="Layer_7">
	<path class="st2" d="M426.3,11.4c0,0-214.2,428.4-511.4,604.2c-6.6,3.9-13,7.9-19.3,12c-7.9,5.2-15.5,10.6-22.9,16.1"/>
	<path class="st3" d="M282.8-7.4c19,47.5,67.1,166,67.1,166S379.8,52,373.1,0.4c-6.8-52.7-62.9-170.2-62.9-170.2S259-66.9,282.8-7.4
		z"/>
	<path class="st4" d="M349.6,142.8C349.5,18.3,308.6-4.4,320.9-87.5"/>
	<path class="st3" d="M516.3,92c-48,17.6-167.9,62.2-167.9,62.2s105.6,32.9,157.4,27.8c52.9-5.3,171.9-58,171.9-58
		S576.5,69.9,516.3,92z"/>
	<path class="st4" d="M364.2,154.3c124.4,3.5,148.3-36.7,231-22"/>
	<path class="st3" d="M195.8,20.4c27.3,59.5,95.9,208.1,95.9,208.1s18.9-124,4.8-186.7c-14.4-64.1-91.8-212.5-91.8-212.5
		S161.7-54.2,195.8,20.4z"/>
	<path class="st4" d="M289.3,209.4C272.8,60.1,224.7,27.4,227.4-70.7"/>
	<path class="st3" d="M461,185.1c-50.7,14.9-177.2,52.6-177.2,52.6s121,53.4,177.5,54c57.7,0.6,182.2-46.9,182.2-46.9
		S524.5,166.5,461,185.1z"/>
	<path class="st4" d="M301.3,240c137.8,20.6,159-24.5,252.2,4"/>
	<path class="st3" d="M144.6,166.1c21.1,46.1,74.3,161,74.3,161s14.6-95.9,3.6-144.4C211.3,133,151.4,18.2,151.4,18.2
		S118.2,108.4,144.6,166.1z"/>
	<path class="st4" d="M217,312.3c-12.8-115.5-50-140.9-48-216.7"/>
	<path class="st3" d="M342.1,314.7c-39.2,11.5-137,40.6-137,40.6s93.6,41.4,137.2,41.9C387,397.7,483.2,361,483.2,361
		S391.2,300.4,342.1,314.7z"/>
	<path class="st4" d="M218.6,357.1c106.6,16,122.9-18.9,195,3.2"/>
	<path class="st3" d="M56.9,279.7c19,47.5,67.1,166,67.1,166s29.8-106.6,23.2-158.1c-6.8-52.7-62.9-170.1-62.9-170.1
		S33.1,220.2,56.9,279.7z"/>
	<path class="st4" d="M123.6,429.9C123.6,305.4,82.7,282.7,95,199.6"/>
	<path class="st3" d="M237.9,426.5C189.9,444.1,70,488.7,70,488.7s105.6,32.9,157.4,27.8c52.9-5.3,171.9-57.9,171.9-57.9
		S298.1,404.4,237.9,426.5z"/>
	<path class="st4" d="M85.8,488.8c124.4,3.5,148.3-36.7,231-22"/>
	<path class="st3" d="M-38.9,400.5c4.8,49,17.4,171.1,17.4,171.1s66.9-107.4,76.7-160.1c10-53.8-11.5-175.2-11.5-175.2
		S-44.9,339.2-38.9,400.5z"/>
	<path class="st4" d="M-16.7,555.5C24,428.9-12.2,404.4,28.2,320.3"/>
	<path class="st3" d="M370-31.4c9.5,24.5,33.5,85.7,33.5,85.7s8.9-52.6,4.4-78.7c-4.6-26.7-31.9-87.6-31.9-87.6S358.1-62.1,370-31.4
		z"/>
	<path class="st4" d="M402.9,46.4c-4.2-62.6-22-75.4-19.7-116.8"/>
	<path class="st3" d="M463.9,20.8c-22.2,18.3-77.2,64.4-77.2,64.4s70.9,7,99-3.6c28.8-10.8,80.9-62.1,80.9-62.1
		S491.6-2.2,463.9,20.8z"/>
	<path class="st4" d="M395.8,83c72.6-15,73.9-44.8,126-46.6"/>
	<path class="st3" d="M482.5-64.5C465.3-41,422.7,18,422.7,18s54.9-14.8,76.7-32.9C521.7-33.5,562-96.4,562-96.4
		S503.9-93.9,482.5-64.5z"/>
	<path class="st4" d="M429.8,13.3C486-22.2,487-50.1,527.3-67.4"/>
</g>
</svg>
