<svg xmlns="http://www.w3.org/2000/svg" viewBox="0 0 471.18 427.33"><defs><style>.cls-1{fill:none;stroke:#fff;stroke-linecap:square;stroke-miterlimit:10;stroke-width:2px;}.cls-2{fill:#fff;}</style></defs><g id="Layer_2" data-name="Layer 2"><g id="Layer_2-2" data-name="Layer 2"><path class="cls-1" d="M470,200c-39,7.88-94,15.9-171.27,22.5-29.5,2.52-56.34.42-80.76-5.19-43.66-10-79.56-31.33-108.85-57.67C87.85,140.5,70,118.7,55.27,96.6"/><path class="cls-2" d="M151.05,298.31c26.78-21.78,93.45-76.52,93.45-76.52S169.89,224,138,238.59c-32.56,14.95-97,74.65-97,74.65S117.52,325.59,151.05,298.31Z"/><path class="cls-2" d="M97.82,227.75c18.32-8.38,64-29.54,64-29.54S122,186.76,102.29,190c-20.08,3.32-65.53,27.81-65.53,27.81S74.87,238.24,97.82,227.75Z"/><path class="cls-2" d="M234.08,176.84c10.29,13.45,36.14,46.95,36.14,46.95s-2.92-35.92-10.2-51.63c-7.43-16-35.4-48.59-35.4-48.59S221.19,160,234.08,176.84Z"/><path class="cls-2" d="M252.41,314.16c13-26.49,45.18-92.86,45.18-92.86s-53.3,25.42-72.07,47.61c-19.18,22.67-48.28,92.42-48.28,92.42S236.13,347.33,252.41,314.16Z"/><path class="cls-2" d="M327.29,347.68c10.42-37.62,36.07-131.79,36.07-131.79s-62.58,46-81.46,79.47c-19.29,34.16-40.16,132-40.16,132S314.23,394.79,327.29,347.68Z"/><path class="cls-2" d="M407.44,330.58c17.22-37,59.91-129.79,59.91-129.79s-66.82,37.4-91,68.78c-24.65,32.06-63.7,129.33-63.7,129.33S385.88,377,407.44,330.58Z"/><path class="cls-2" d="M52.22,166.1c12.8-3.82,44.67-13.62,44.67-13.62s-35.38-21.63-50.56-23.31C30.82,127.45,0,140.67,0,140.67S36.19,170.88,52.22,166.1Z"/><path class="cls-2" d="M30.12,114.17c9.76-.39,34.15-1.53,34.15-1.53S46.08,95.3,36.2,92.2c-10.1-3.16-34.71.08-34.71.08S17.89,114.66,30.12,114.17Z"/><path class="cls-2" d="M249.92,135.5C267.73,159.41,312.51,219,312.51,219s.88-64.46-10.58-92.5C290.24,97.8,241.09,40,241.09,40S227.62,105.56,249.92,135.5Z"/><path class="cls-2" d="M156.84,127.33c13.85,25,48.82,87.27,48.82,87.27s17.2-75.66,11.48-106.6C211.3,76.4,171,17,171,17S139.5,96,156.84,127.33Z"/><path class="cls-2" d="M113.88,135.13c6.1,13.61,21.53,47.53,21.53,47.53s10.77-36,8.88-51.86c-1.94-16.18-20.08-49.16-20.08-49.16S106.24,118.08,113.88,135.13Z"/><path class="cls-2" d="M75.52,71.62C76.14,87.16,77.94,126,77.94,126S105.54,97,110.47,81.3c5-16.07-.13-55.23-.13-55.23S74.74,52.17,75.52,71.62Z"/><path class="cls-2" d="M333.07,127.15c21.13,24.86,74.27,86.56,74.27,86.56s2.25-88.91-11.1-122.3C382.61,57.31,324.15,0,324.15,0S306.61,96,333.07,127.15Z"/></g></g></svg>