<svg xmlns="http://www.w3.org/2000/svg" viewBox="0 0 663.15 931.67"><defs><style>.cls-1,.cls-3{fill:none;stroke-miterlimit:10;}.cls-1{stroke:#f58220;stroke-linecap:square;stroke-width:2px;}.cls-2{fill:#f58220;}.cls-3{stroke:#fff;stroke-linecap:round;}</style></defs><g id="Layer_2" data-name="Layer 2"><g id="Layer_5" data-name="Layer 5"><path class="cls-1" d="M244.48,201S579.63,543.11,649,881.39q2.31,11.25,5.09,22.13,3.52,13.76,7.77,26.89"/><path class="cls-2" d="M179.91,330.47c51.11-2.5,178.81-9.32,178.81-9.32s-91-62.93-141.93-73.46c-52-10.75-181.35,4-181.35,4S115.9,333.59,179.91,330.47Z"/><path class="cls-3" d="M343.65,316.33c-117.66-40.47-152.49-9.26-227-48"/><path class="cls-2" d="M350,142.13c1,51.17,4.14,179,4.14,179S419.65,232,431.64,181.4C443.9,129.71,432.91,0,432.91,0S348.7,78.06,350,142.13Z"/><path class="cls-3" d="M359.36,306.21C403.23,189.78,373,154.05,413.88,80.68"/><path class="cls-2" d="M177.83,421.79c65.17-6.36,228-22.88,228-22.88s-111-58.29-175-65.4C165.52,326.25,0,351.07,0,351.07S96.23,429.76,177.83,421.79Z"/><path class="cls-3" d="M387,395.06c-146.58-33.12-193.18,1.72-285-32.76"/><path class="cls-2" d="M420,224.78c-2.5,52.81-8,184.7-8,184.7S502,312.49,521,259.31C540.37,205,536,71.74,536,71.74S423.17,158.66,420,224.78Z"/><path class="cls-3" d="M419.82,393.67c64.39-123.59,28.66-158.28,86-237.14"/><path class="cls-2" d="M298.9,517.68C349.31,512.74,475.3,500,475.3,500s-85.89-45-135.36-50.52c-50.54-5.6-178.6,13.62-178.6,13.62S235.77,523.86,298.9,517.68Z"/><path class="cls-3" d="M460.76,497c-113.4-25.57-149.45,1.37-220.52-25.26"/><path class="cls-2" d="M503.82,379.42c-1.95,40.81-6.23,142.76-6.23,142.76s69.59-75,84.29-116.09c15-42,11.68-145,11.68-145S506.25,328.31,503.82,379.42Z"/><path class="cls-3" d="M503.61,510c49.84-95.54,22.21-122.35,66.59-183.31"/><path class="cls-2" d="M377.71,637.63c51.12-2.49,178.81-9.31,178.81-9.31s-91-62.93-141.92-73.46c-52-10.75-181.36,4-181.36,4S313.71,640.76,377.71,637.63Z"/><path class="cls-3" d="M541.45,623.5c-117.65-40.48-152.49-9.27-227-48"/><path class="cls-2" d="M575.51,514.36c1,51.17,4.15,179,4.15,179s65.53-89.14,77.53-139.73c12.25-51.69,1.26-181.4,1.26-181.4S574.24,450.29,575.51,514.36Z"/><path class="cls-3" d="M584.91,678.44C628.77,562,598.58,526.28,639.42,452.91"/><path class="cls-2" d="M460.78,767.58c47.84,11.43,167.4,39.31,167.4,39.31s-79.76-98.24-126.37-124.67c-47.62-27-169.35-46.2-169.35-46.2S400.88,753.26,460.78,767.58Z"/><path class="cls-3" d="M614.53,797.11C508.12,717.36,473.15,743.68,406.8,678.06"/><path class="cls-2" d="M185.72,240.22c26.29-1,92-3.78,92-3.78s-46.81-25.54-73-29.82c-26.76-4.36-93.29,1.62-93.29,1.62S152.79,241.49,185.72,240.22Z"/><path class="cls-3" d="M270,234.48c-60.53-16.43-78.45-3.76-116.78-19.47"/><path class="cls-2" d="M265.59,168.49c10.09,26.91,35.7,94,35.7,94S331,197.75,330.16,167.7C329.3,137,297.82,71,297.82,71S253,134.79,265.59,168.49Z"/><path class="cls-3" d="M302.25,253.17c9.48-73.49-18.27-84.46-3-134.27"/><path class="cls-2" d="M191,123.14c16.65,23.87,58.53,83.37,58.53,83.37s4-56.73-6.14-83.25c-10.31-27.1-56.64-85.71-56.64-85.71S170.18,93.26,191,123.14Z"/><path class="cls-3" d="M247.41,198.3c-15.27-64.7-41.33-74.73-44.49-118.47"/></g></g></svg>