<?xml version="1.0" encoding="utf-8"?>
<!-- Generator: Adobe Illustrator 24.1.0, SVG Export Plug-In . SVG Version: 6.00 Build 0)  -->
<svg version="1.1" id="Layer_1" xmlns="http://www.w3.org/2000/svg" xmlns:xlink="http://www.w3.org/1999/xlink" x="0px" y="0px"
	 viewBox="0 0 1920 1080" style="enable-background:new 0 0 1920 1080;" xml:space="preserve">
<style type="text/css">
	.st0{fill:#00404F;}
	.st1{fill:#FFF3CD;}
	.st2{fill:#061D2F;}
	.st3{fill:#230000;}
	.st4{font-family:'Roboto-Regular';}
	.st5{font-size:51px;}
	.st6{fill:none;stroke:#061D2F;stroke-width:2;stroke-miterlimit:10;}
	.st7{fill:#F58220;}
	.st8{fill:#EE222B;}
	.st9{font-size:37px;}
	.st10{fill:#742801;}
	.st11{fill:none;stroke:#F58220;stroke-width:2;stroke-linecap:square;stroke-miterlimit:10;}
	.st12{fill:none;stroke:#FFFFFF;stroke-linecap:round;stroke-miterlimit:10;}
	.st13{font-size:28px;}
	.st14{letter-spacing:-1;}
	.st15{fill:none;stroke:#FFFFFF;stroke-width:2;stroke-linecap:square;stroke-miterlimit:10;}
	.st16{fill:#FFFFFF;}
</style>
<g id="Layer_1_1_">
	<rect x="-4" class="st0" width="1928" height="1080"/>
</g>
<g id="Layer_2_1_">
	<rect x="326.5" y="72.5" class="st1" width="1363" height="684"/>
	<path class="st2" d="M1668,94v641H348V94H1668 M1711,51H305v727h1406V51z"/>
</g>
<g id="Layer_3">
	<rect x="797.6" y="867.4" class="st3" width="155.7" height="208.3"/>
	<path class="st1" d="M875.6,824.8c0-32.4,28.7-58.6,64.2-58.6s64.2,26.2,64.2,58.6c0,48-81.7,101.2-128.3,101.2
		c-58.3,0-128.3-55.1-128.3-101.2c0-26.6,28.7-58.6,64.2-58.6S875.7,792.5,875.6,824.8"/>
	<text transform="matrix(1 0 0 1 807.95 869.64)" class="st2 st4 st5">score</text>
	<text transform="matrix(1 0 0 1 807.95 869.64)" class="st6 st4 st5">score</text>
	<text transform="matrix(1 0 0 1 837 1041.52)" class="st7 st4 st5">15</text>
	<rect x="1071.8" y="920.8" class="st3" width="155.7" height="155.9"/>
	<path class="st1" d="M1154.8,881.2c0-32.4,28.7-58.6,64.2-58.6s64.2,26.2,64.2,58.6c0,48-81.7,101.2-128.3,101.2
		c-58.3,0-128.3-55.1-128.3-101.2c0-26.6,28.7-58.6,64.2-58.6S1154.8,848.9,1154.8,881.2"/>
	<text transform="matrix(1 0 0 1 1106.16 933.05)" class="st2 st4 st5">time</text>
	<text transform="matrix(1 0 0 1 1106.16 933.05)" class="st6 st4 st5">time</text>
	<text transform="matrix(1 0 0 1 1126.22 1045.9301)" class="st7 st4 st5">25</text>
	<path class="st8" d="M625.7,217.1c0-34.4,27.9-62.3,62.3-62.3s62.3,27.9,62.3,62.3c0,51-79.3,107.7-124.6,107.7
		C569,324.8,501,266.2,501,217.1c0-28.3,27.9-62.3,62.3-62.3C597.7,154.8,625.6,182.7,625.7,217.1L625.7,217.1"/>
	<text transform="matrix(1 0 0 1 459.31 414.08)" class="st3 st4 st9">Collect as many red </text>
	<text transform="matrix(1 0 0 1 451.71 458.48)" class="st3 st4 st9">hea</text>
	<text transform="matrix(1 0 0 1 511.82 458.48)" class="st3 st4 st9">r</text>
	<text transform="matrix(1 0 0 1 525.24 458.48)" class="st3 st4 st9">ts as you can, </text>
	<text transform="matrix(1 0 0 1 758.43 458.48)" class="st3 st4 st9">t</text>
	<text transform="matrix(1 0 0 1 770.15 458.48)" class="st3 st4 st9">o </text>
	<text transform="matrix(1 0 0 1 429.33 502.88)" class="st3 st4 st9">make animals like each </text>
	<text transform="matrix(1 0 0 1 578.46 547.28)" class="st3 st4 st9">other!</text>
	<path class="st10" d="M1090.7,339.3c-59.6,0-131.1-61.6-131.1-113.2c0-29.8,29.3-65.6,65.6-65.6c36.2,0,65.6,29.3,65.6,65.5
		c0,0,0,0,0,0"/>
	<path class="st3" d="M1090.7,226.1c-0.4-36.2,28.5-65.9,64.7-66.4c36.2-0.4,65.9,28.5,66.4,64.7c0,0.5,0,1.1,0,1.6
		c0,53.6-83.4,113.2-131.1,113.2l-24.2-24.2l23.6-23.6l-23.8-11.9l23.8-22.5l-23.8-13.2L1090.7,226.1z"/>
	<text transform="matrix(1 0 0 1 966.79 414.82)" class="st3 st4 st9">Also </text>
	<text transform="matrix(1 0 0 1 1049.25 414.82)" class="st3 st4 st9">av</text>
	<text transform="matrix(1 0 0 1 1086.75 414.82)" class="st3 st4 st9">oid dark </text>
	<text transform="matrix(1 0 0 1 943.75 459.22)" class="st3 st4 st9">hea</text>
	<text transform="matrix(1 0 0 1 1003.85 459.22)" class="st3 st4 st9">r</text>
	<text transform="matrix(1 0 0 1 1017.28 459.22)" class="st3 st4 st9">ts, they cause </text>
	<text transform="matrix(1 0 0 1 983.85 503.62)" class="st3 st4 st9">a lot of fights!</text>
	<g id="Layer_5">
		<path class="st11" d="M155.1,780.3c0,0,432.2,318,569.8,679.6c3,8,6.2,15.9,9.6,23.6c4.3,9.7,8.7,19.2,13.4,28.3"/>
		<path class="st7" d="M107,935.1c56.1-12,196.1-42.5,196.1-42.5s-112-53.2-170.2-55.7c-59.5-2.5-199.8,37-199.8,37
			S36.8,950.1,107,935.1z"/>
		<path class="st12" d="M285.5,890c-137.4-23.6-170.3,17.2-259.7-12.2"/>
		<path class="st7" d="M261.2,696.2c10.3,56.4,36.8,197.2,36.8,197.2s56.4-110.4,60.6-168.5c4.2-59.4-31.2-200.8-31.2-200.8
			S248.3,625.6,261.2,696.2z"/>
		<path class="st12" d="M301.1,876c27.5-136.7-12.3-170.7,19.7-259.2"/>
		<path class="st7" d="M121.2,1036.5c70.9-18.8,248-66.3,248-66.3s-133.3-44.5-205.3-40.8c-73.6,3.7-252.1,61-252.1,61
			S32.3,1060,121.2,1036.5z"/>
		<path class="st12" d="M347.7,969.2c-168-10.2-213.3,36.7-321.1,15.1"/>
		<path class="st7" d="M364.5,826.4c3.7,44.1,13.5,154.3,13.5,154.3s70.3-95.6,81.5-142.8C470.9,789.6,452,680,452,680
			S359.9,771.1,364.5,826.4z"/>
		<path class="st12" d="M383.7,961.8c47.4-135.2,5.2-163.6,52.3-252.8"/>
		<path class="st7" d="M272.3,1120.7c54.9-14.5,191.9-51.3,191.9-51.3s-103.1-34.4-158.8-31.5c-56.9,2.9-195,47.2-195,47.2
			S203.6,1138.9,272.3,1120.7z"/>
		<path class="st12" d="M447.6,1068.7c-130-7.9-165,28.4-248.4,11.7"/>
		<path class="st7" d="M474,930.9c5.2,45.5,18.8,159,18.8,159s63.5-95.4,72.3-143.5c9.1-49.1-13.1-162.4-13.1-162.4
			S467.5,874,474,930.9z"/>
		<path class="st12" d="M497.3,1075.3c37.9-114.6,2.5-139.3,40.6-214.7"/>
		<path class="st7" d="M577.6,1067.3c10.3,56.4,36.8,197.2,36.8,197.2s56.4-110.4,60.6-168.5c4.2-59.4-31.2-200.8-31.2-200.8
			S564.7,996.6,577.6,1067.3z"/>
		<path class="st12" d="M617.5,1247c27.6-136.7-12.3-170.7,19.7-259.2"/>
		<path class="st7" d="M97.2,834.2c28.9-5.8,101-20.7,101-20.7s-56.4-19.8-86.1-19.8c-30.4,0-102.9,18.6-102.9,18.6
			S61,841.6,97.2,834.2z"/>
		<path class="st12" d="M189.3,812.7c-69.9-7.3-87.4,10-132.6-0.5"/>
		<path class="st7" d="M172.6,740.5c16,27.9,56.4,97.5,56.4,97.5s21.2-76.9,14.9-110c-6.5-33.8-53.2-101.1-53.2-101.1
			S152.6,705.5,172.6,740.5z"/>
		<path class="st12" d="M228.4,827.6c-2.7-83-35.4-90.1-27.5-147.9"/>
		<path class="st7" d="M82,703.8c22.7,23.4,79.7,81.7,79.7,81.7s-5.8-63.5-21.7-91c-16.3-28.1-78.1-84.6-78.1-84.6
			S53.6,674.5,82,703.8z"/>
		<path class="st12" d="M157.9,776.8c-28.5-68.8-59.2-75.2-70.5-123"/>
	</g>
	<text transform="matrix(1 0 0 1 477.82 608.99)" class="st3 st4 st13">Do</text>
	<text transform="matrix(1 0 0 1 512.15 608.99)" class="st3 st4 st13 st14">n</text>
	<text transform="matrix(1 0 0 1 526.51 608.99)" class="st3 st4 st13">’t let the good hea</text>
	<text transform="matrix(1 0 0 1 748.07 608.99)" class="st3 st4 st13">r</text>
	<text transform="matrix(1 0 0 1 758.23 608.99)" class="st3 st4 st13">t </text>
	<text transform="matrix(1 0 0 1 439.09 642.59)" class="st3 st4 st13">fall out the  sceen!  </text>
	<text transform="matrix(1 0 0 1 680.19 642.59)" class="st3 st4 st13">Y</text>
	<text transform="matrix(1 0 0 1 696.12 642.59)" class="st3 st4 st13">ou</text>
	<text transform="matrix(1 0 0 1 727.52 642.59)" class="st3 st4 st13">’</text>
	<text transform="matrix(1 0 0 1 733.55 642.59)" class="st3 st4 st13">ll lose </text>
	<text transform="matrix(1 0 0 1 478.57 676.19)" class="st3 st4 st13">points when it happens!</text>
</g>
<g id="Layer_6">
	<path class="st15" d="M252-88.3c0,0,2.4,6-0.7,27.2c-2.1,14.2-6.5,35.2-15.8,65.9c-10.9,35.8-28.3,84.8-56.1,151.4
		c-10.6,25.4-23.3,46.4-37.5,63.6c-22.5,27.8-52.2,48.8-85.9,60.8c-47.6,17.1-97,15.2-133.9,9.3c-1.9-0.3-3.7-0.6-5.5-0.9
		c-32.2-5.7-53.6-14-53.6-14"/>
	<path class="st16" d="M170.4,314.5c-4-32.7-14.2-114.2-14.2-114.2s-29.8,62.2-32.9,95.5c-3.2,34,11.4,116.2,11.4,116.2
		S175.3,355.4,170.4,314.5z"/>
	<path class="st12" d="M154.3,210.2c-16.1,78,2.7,98.5-14.6,148.6"/>
	<path class="st16" d="M98.8,323.4c1.8-19.1,6.2-67,6.2-67s-24.7,27-30.7,44.8c-6.1,18.1-8.1,67.4-8.1,67.4S96.5,347.4,98.8,323.4z"
		/>
	<path class="st12" d="M102.7,261.5c-18.9,39.2-10.8,55.4-27,78.8"/>
	<path class="st16" d="M120.4,186.7c13.7-1.8,47.9-6.5,47.9-6.5s-26.3-15.3-40.3-17.1c-14.3-1.8-48.8,5.1-48.8,5.1
		S103.3,189,120.4,186.7z"/>
	<path class="st12" d="M164.1,179.2c-32.9-8.5-41.4,0.8-62.5-8.2"/>
	<path class="st16" d="M223.9,239.3c-13-23.7-45.9-82.8-45.9-82.8s-4.6,56.2,3,82.5c7.8,26.9,44.2,85.1,44.2,85.1
		S240.3,269,223.9,239.3z"/>
	<path class="st12" d="M179.6,164.7c10.9,64.2,32,74.2,33.5,117.5"/>
	<path class="st12" d="M198.2,81.4c-33.9-13.4-52.3-12.2-69.7-14.1"/>
	<path class="st16" d="M278.7,194.4c-21.9-27.1-76.8-94.4-76.8-94.4s5.9,73.9,21.3,105.9c15.7,32.6,75.2,97.9,75.2,97.9
		S306.1,228.3,278.7,194.4z"/>
	<path class="st12" d="M205.6,110.1c27.7,80,57.1,87.1,68.2,142.8"/>
	<path class="st16" d="M300.8,102.8c-18.6-32.3-65.4-113-65.4-113s-1.9,73.2,9.9,108.4c12,36,63.5,115.9,63.5,115.9
		S324.2,143.3,300.8,102.8z"/>
	<path class="st12" d="M238,0.6c18.8,85.1,46.9,100.3,52,157.3"/>
	<path class="st16" d="M21.1,332.9c2.7-12.4,9.2-43.3,9.2-43.3s-29.9,18.3-37.5,30c-7.7,11.9-11.4,43.6-11.4,43.6
		S17.8,348.4,21.1,332.9z"/>
	<path class="st12" d="M27.5,292.9c-23.5,26-14.3,36-34,51.7"/>
	<path class="st16" d="M98.2,153.4c24.2-2.8,84.5-10.2,84.5-10.2s-44.6-32.4-69-36.9c-24.9-4.5-85.8,7.3-85.8,7.3
		S68,156.9,98.2,153.4z"/>
	<path class="st12" d="M175.4,140.9c-56.7-19.2-72.4-0.9-108.7-20.3"/>
	<path class="st16" d="M53.5,225.6c23.3,1,81.4,3,81.4,3s-45.6-51.3-69.6-61.9c-24.5-10.8-82.9-7-82.9-7S24.3,224.4,53.5,225.6z"/>
	<path class="st12" d="M127.7,224.2c-56.4-36.3-70.5-15.2-107-47.8"/>
	<path class="st16" d="M40.9,264.6c12.1,1.7,42.2,5.8,42.2,5.8s-20.6-26.6-32.5-32.8c-12.1-6.4-42.7-7.8-42.7-7.8
		S25.8,262.5,40.9,264.6z"/>
	<path class="st12" d="M79.6,268c-27.2-20.1-35.8-11-52.8-28.2"/>
	<path class="st16" d="M-19.5,264.8c11.1,7.1,38.9,24.8,38.9,24.8s-8.6-36.9-17.5-48.6c-9.1-12-38.6-27.1-38.6-27.1
		S-33.4,255.9-19.5,264.8z"/>
	<path class="st12" d="M17.1,285.5c-17.9-33-30.4-27.3-39.5-52.9"/>
	<path class="st16" d="M121.3,84c24.3,1.3,85,4.3,85,4.3s-38.5-39.5-61.7-48c-23.8-8.7-85.8-7.4-85.8-7.4S90.8,82.3,121.3,84z"/>
</g>
</svg>
