<svg xmlns="http://www.w3.org/2000/svg" viewBox="0 0 1920 1080"><defs><style>.cls-1{fill:#00404f;}.cls-2{fill:#061d2f;}.cls-3{fill:#fff3cd;}.cls-4,.cls-6{fill:#fff;}.cls-10,.cls-15,.cls-5,.cls-9{fill:none;}.cls-5,.cls-6{stroke:#f58220;}.cls-10,.cls-5,.cls-6,.cls-7,.cls-8{stroke-miterlimit:10;}.cls-15,.cls-17,.cls-5,.cls-6{stroke-width:2px;}.cls-7,.cls-8{fill:#8aa9ac;}.cls-10,.cls-7,.cls-8{stroke:#061d2f;}.cls-7{stroke-width:8px;}.cls-10,.cls-8{stroke-width:4px;}.cls-10{stroke-linecap:square;}.cls-11{fill:#a0866f;}.cls-12{fill:#e7c2a5;}.cls-13{fill:#fbe0c9;}.cls-14{fill:#603813;}.cls-15,.cls-17{stroke:#231f20;stroke-linecap:round;stroke-linejoin:round;}.cls-16{fill:#d31c5b;}.cls-17{fill:#231f20;}.cls-18{fill:#404041;}.cls-19{fill:#f1f1f2;}.cls-20{fill:#58595b;}.cls-21{fill:#6d6e70;}.cls-22{fill:#e6e7e8;}</style></defs><g id="Layer_1" data-name="Layer 1"><rect class="cls-1" x="-8.14" y="1.09" width="1928" height="1080" transform="translate(1911.73 1082.17) rotate(-180)"/><rect class="cls-2" x="-13.14" y="-2.91" width="1550.57" height="839.75" transform="translate(1524.29 833.92) rotate(-180)"/><rect class="cls-3" x="9.86" y="7.09" width="1498.98" height="801.16" transform="translate(1518.71 815.33) rotate(-180)"/><rect class="cls-4" x="822.72" y="101.33" width="519.79" height="708.22" transform="translate(2165.22 910.88) rotate(-180)"/><ellipse class="cls-4" cx="675.87" cy="125.37" rx="90.96" ry="57.83"/><circle class="cls-4" cx="605.05" cy="96.78" r="66.92"/><ellipse class="cls-4" cx="555.02" cy="157.86" rx="100.06" ry="51.33"/><ellipse class="cls-4" cx="512.79" cy="98.08" rx="72.12" ry="30.54"/><line class="cls-5" x1="1342.51" y1="127.28" x2="822.72" y2="127.28"/><line class="cls-5" x1="1290.99" y1="101.33" x2="1290.99" y2="809.55"/><line class="cls-5" x1="1184.34" y1="127.28" x2="1184.34" y2="809.55"/><line class="cls-5" x1="1175.62" y1="127.81" x2="1175.62" y2="810.09"/><polygon class="cls-6" points="1200.87 242.97 1273.64 242.97 1273.64 145.51 1237.25 145.51 1200.87 145.51 1200.87 242.97"/><rect class="cls-6" x="1200.87" y="261.17" width="72.77" height="97.46" transform="translate(2474.5 619.79) rotate(-180)"/><rect class="cls-6" x="1200.87" y="376.82" width="72.77" height="97.46" transform="translate(2474.5 851.1) rotate(-180)"/><line class="cls-6" x1="1237.25" y1="242.97" x2="1237.25" y2="145.51"/><line class="cls-6" x1="1237.25" y1="261.17" x2="1237.25" y2="358.63"/><line class="cls-6" x1="1237.25" y1="376.82" x2="1237.25" y2="474.28"/><polygon class="cls-6" points="1200.87 589.93 1273.64 589.93 1273.64 492.47 1237.25 492.47 1200.87 492.47 1200.87 589.93"/><rect class="cls-6" x="1200.87" y="608.13" width="72.77" height="97.46" transform="translate(2474.5 1313.72) rotate(-180)"/><rect class="cls-6" x="1200.87" y="723.78" width="72.77" height="85.77" transform="translate(2474.5 1533.33) rotate(-180)"/><line class="cls-6" x1="1237.25" y1="589.94" x2="1237.25" y2="492.47"/><line class="cls-6" x1="1237.25" y1="608.13" x2="1237.25" y2="705.59"/><line class="cls-6" x1="1237.25" y1="723.78" x2="1237.25" y2="809.55"/><line class="cls-5" x1="1068.42" y1="126.71" x2="1068.42" y2="808.98"/><line class="cls-5" x1="1059.7" y1="127.24" x2="1059.7" y2="809.51"/><polygon class="cls-6" points="1084.94 242.4 1157.71 242.4 1157.71 144.94 1121.33 144.94 1084.94 144.94 1084.94 242.4"/><rect class="cls-6" x="1084.94" y="260.59" width="72.77" height="97.46" transform="translate(2242.66 618.65) rotate(-180)"/><rect class="cls-6" x="1084.94" y="376.25" width="72.77" height="97.46" transform="translate(2242.66 849.96) rotate(-180)"/><line class="cls-6" x1="1121.33" y1="242.4" x2="1121.33" y2="144.94"/><line class="cls-6" x1="1121.33" y1="260.59" x2="1121.33" y2="358.06"/><line class="cls-6" x1="1121.33" y1="376.25" x2="1121.33" y2="473.71"/><polygon class="cls-6" points="1084.94 589.36 1157.71 589.36 1157.71 491.9 1121.33 491.9 1084.94 491.9 1084.94 589.36"/><rect class="cls-6" x="1084.94" y="607.56" width="72.77" height="97.46" transform="translate(2242.66 1312.57) rotate(-180)"/><rect class="cls-6" x="1084.94" y="723.21" width="72.77" height="85.77" transform="translate(2242.66 1532.19) rotate(-180)"/><line class="cls-6" x1="1121.33" y1="589.36" x2="1121.33" y2="491.9"/><line class="cls-6" x1="1121.33" y1="607.56" x2="1121.33" y2="705.02"/><line class="cls-6" x1="1121.33" y1="723.21" x2="1121.33" y2="808.98"/><line class="cls-5" x1="955.48" y1="126.44" x2="955.48" y2="808.71"/><line class="cls-5" x1="946.76" y1="126.97" x2="946.76" y2="809.24"/><polygon class="cls-6" points="972 242.13 1044.77 242.13 1044.77 144.67 1008.38 144.67 972 144.67 972 242.13"/><rect class="cls-6" x="972" y="260.33" width="72.77" height="97.46" transform="translate(2016.77 618.11) rotate(-180)"/><rect class="cls-6" x="972" y="375.98" width="72.77" height="97.46" transform="translate(2016.77 849.42) rotate(-180)"/><line class="cls-6" x1="1008.38" y1="242.13" x2="1008.38" y2="144.67"/><line class="cls-6" x1="1008.38" y1="260.33" x2="1008.38" y2="357.79"/><line class="cls-6" x1="1008.38" y1="375.98" x2="1008.38" y2="473.44"/><polygon class="cls-6" points="972 589.1 1044.77 589.1 1044.77 491.63 1008.38 491.63 972 491.63 972 589.1"/><rect class="cls-6" x="972" y="607.29" width="72.77" height="97.46" transform="translate(2016.77 1312.04) rotate(-180)"/><rect class="cls-6" x="972" y="722.94" width="72.77" height="85.77" transform="translate(2016.77 1531.65) rotate(-180)"/><line class="cls-6" x1="1008.38" y1="589.09" x2="1008.38" y2="491.63"/><line class="cls-6" x1="1008.38" y1="607.29" x2="1008.38" y2="704.75"/><line class="cls-6" x1="1008.38" y1="722.94" x2="1008.38" y2="808.71"/><line class="cls-5" x1="832.02" y1="126.44" x2="832.02" y2="808.71"/><line class="cls-5" x1="823.31" y1="126.97" x2="823.31" y2="809.24"/><polygon class="cls-6" points="848.55 242.13 921.32 242.13 921.32 144.67 884.93 144.67 848.55 144.67 848.55 242.13"/><rect class="cls-6" x="848.55" y="260.33" width="72.77" height="97.46" transform="translate(1769.87 618.11) rotate(-180)"/><rect class="cls-6" x="848.55" y="375.98" width="72.77" height="97.46" transform="translate(1769.87 849.42) rotate(-180)"/><line class="cls-6" x1="884.93" y1="242.13" x2="884.93" y2="144.67"/><line class="cls-6" x1="884.93" y1="260.33" x2="884.93" y2="357.79"/><line class="cls-6" x1="884.93" y1="375.98" x2="884.93" y2="473.44"/><polygon class="cls-6" points="848.55 589.1 921.32 589.1 921.32 491.63 884.93 491.63 848.55 491.63 848.55 589.1"/><rect class="cls-6" x="848.55" y="607.29" width="72.77" height="97.46" transform="translate(1769.87 1312.04) rotate(-180)"/><rect class="cls-6" x="848.55" y="722.94" width="72.77" height="85.77" transform="translate(1769.87 1531.65) rotate(-180)"/><line class="cls-6" x1="884.93" y1="589.09" x2="884.93" y2="491.63"/><line class="cls-6" x1="884.93" y1="607.29" x2="884.93" y2="704.75"/><line class="cls-6" x1="884.93" y1="722.94" x2="884.93" y2="808.71"/><rect class="cls-4" x="228.18" y="271.4" width="434.96" height="537.58" transform="translate(891.31 1080.37) rotate(-180)"/><line class="cls-5" x1="659.91" y1="291.26" x2="224.95" y2="291.26"/><line class="cls-5" x1="558.74" y1="291.26" x2="558.74" y2="809.14"/><line class="cls-5" x1="551.45" y1="291.67" x2="551.45" y2="809.55"/><polygon class="cls-6" points="573.22 341.73 633.47 341.73 633.47 305.1 603.34 305.1 573.22 305.1 573.22 341.73"/><rect class="cls-6" x="572.57" y="392.89" width="61.72" height="46.31" transform="translate(1206.86 832.08) rotate(-180)"/><rect class="cls-6" x="572.57" y="480.67" width="60.89" height="45.59" transform="translate(1206.04 1006.94) rotate(-180)"/><polygon class="cls-6" points="572.57 615.92 633.47 615.92 633.47 568.46 603.02 568.46 572.57 568.46 572.57 615.92"/><rect class="cls-6" x="572.57" y="656.25" width="60.89" height="48.04" transform="translate(1206.04 1360.54) rotate(-180)"/><rect class="cls-6" x="572.57" y="744.04" width="60.89" height="39.52" transform="translate(1206.04 1527.6) rotate(-180)"/><line class="cls-5" x1="461.74" y1="290.82" x2="461.74" y2="808.71"/><line class="cls-5" x1="454.45" y1="291.23" x2="454.45" y2="809.11"/><polygon class="cls-6" points="475.57 378.64 536.46 378.64 536.46 304.67 506.02 304.67 475.57 304.67 475.57 378.64"/><rect class="cls-6" x="475.57" y="392.45" width="60.89" height="73.98" transform="translate(1012.03 858.89) rotate(-180)"/><rect class="cls-6" x="475.57" y="480.24" width="60.89" height="73.98" transform="translate(1012.03 1034.46) rotate(-180)"/><line class="cls-6" x1="506.02" y1="378.64" x2="506.02" y2="304.67"/><line class="cls-6" x1="506.02" y1="392.45" x2="506.02" y2="466.43"/><line class="cls-6" x1="506.02" y1="480.24" x2="506.02" y2="554.22"/><polygon class="cls-6" points="475.57 642.01 536.46 642.01 536.46 568.03 506.02 568.03 475.57 568.03 475.57 642.01"/><rect class="cls-6" x="475.57" y="655.82" width="60.89" height="73.98" transform="translate(1012.03 1385.61) rotate(-180)"/><rect class="cls-6" x="475.57" y="743.6" width="60.89" height="65.1" transform="translate(1012.03 1552.31) rotate(-180)"/><line class="cls-6" x1="506.02" y1="642.01" x2="506.02" y2="568.03"/><line class="cls-6" x1="506.02" y1="655.82" x2="506.02" y2="729.8"/><line class="cls-6" x1="506.02" y1="743.6" x2="506.02" y2="808.71"/><line class="cls-5" x1="367.23" y1="290.62" x2="367.23" y2="808.5"/><line class="cls-5" x1="359.94" y1="291.03" x2="359.94" y2="808.91"/><polygon class="cls-6" points="381.06 378.44 441.95 378.44 441.95 304.46 411.51 304.46 381.06 304.46 381.06 378.44"/><rect class="cls-6" x="381.06" y="392.25" width="60.89" height="73.98" transform="translate(823.01 858.48) rotate(-180)"/><rect class="cls-6" x="381.06" y="480.04" width="60.89" height="73.98" transform="translate(823.01 1034.05) rotate(-180)"/><line class="cls-6" x1="411.51" y1="378.44" x2="411.51" y2="304.46"/><line class="cls-6" x1="411.51" y1="392.25" x2="411.51" y2="466.23"/><line class="cls-6" x1="411.51" y1="480.04" x2="411.51" y2="554.02"/><polygon class="cls-6" points="381.06 641.8 441.95 641.8 441.95 567.83 411.51 567.83 381.06 567.83 381.06 641.8"/><rect class="cls-6" x="381.06" y="655.61" width="60.89" height="73.98" transform="translate(823.01 1385.2) rotate(-180)"/><rect class="cls-6" x="381.06" y="743.4" width="60.89" height="65.1" transform="translate(823.01 1551.9) rotate(-180)"/><line class="cls-6" x1="411.51" y1="641.8" x2="411.51" y2="567.82"/><line class="cls-6" x1="411.51" y1="655.61" x2="411.51" y2="729.59"/><line class="cls-6" x1="411.51" y1="743.4" x2="411.51" y2="808.5"/><line class="cls-5" x1="263.93" y1="290.62" x2="263.93" y2="808.5"/><line class="cls-5" x1="256.64" y1="291.03" x2="256.64" y2="808.91"/><polygon class="cls-6" points="277.76 378.44 338.65 378.44 338.65 304.46 308.2 304.46 277.76 304.46 277.76 378.44"/><rect class="cls-6" x="277.76" y="392.25" width="60.89" height="73.98" transform="translate(616.41 858.48) rotate(-180)"/><rect class="cls-6" x="277.76" y="480.04" width="60.89" height="73.98" transform="translate(616.41 1034.05) rotate(-180)"/><line class="cls-6" x1="308.2" y1="378.44" x2="308.2" y2="304.46"/><line class="cls-6" x1="308.2" y1="392.25" x2="308.2" y2="466.23"/><line class="cls-6" x1="308.2" y1="480.04" x2="308.2" y2="554.02"/><polygon class="cls-6" points="277.76 641.8 338.65 641.8 338.65 567.83 308.2 567.83 277.76 567.83 277.76 641.8"/><rect class="cls-6" x="277.76" y="655.61" width="60.89" height="73.98" transform="translate(616.41 1385.2) rotate(-180)"/><rect class="cls-6" x="277.76" y="743.4" width="60.89" height="65.1" transform="translate(616.41 1551.9) rotate(-180)"/><line class="cls-6" x1="308.2" y1="641.8" x2="308.2" y2="567.82"/><line class="cls-6" x1="308.2" y1="655.61" x2="308.2" y2="729.59"/><line class="cls-6" x1="308.2" y1="743.4" x2="308.2" y2="808.5"/><line class="cls-5" x1="655.25" y1="290.81" x2="655.25" y2="808.69"/><line class="cls-5" x1="647.96" y1="291.22" x2="647.96" y2="809.1"/><polyline class="cls-5" points="647.96 341.65 558.75 341.65 647.96 439.25 558.75 439.25 647.96 526.42 558.75 526.42 647.96 615.34 558.75 615.34 647.96 704.75 558.75 704.75 647.96 784.46 558.92 783.56"/><line class="cls-5" x1="647.96" y1="379.08" x2="558.74" y2="379.08"/><line class="cls-6" x1="647.96" y1="466.87" x2="558.74" y2="466.43"/><line class="cls-6" x1="647.09" y1="554.33" x2="557.88" y2="553.9"/><line class="cls-6" x1="647.13" y1="642.3" x2="557.92" y2="641.86"/><line class="cls-6" x1="648.32" y1="730.32" x2="559.11" y2="729.89"/><polygon class="cls-6" points="381.06 337.63 441.31 337.63 441.31 301 411.19 301 381.06 301 381.06 337.63"/><rect class="cls-6" x="380.42" y="388.79" width="61.72" height="46.31" transform="translate(822.56 823.88) rotate(-180)"/><rect class="cls-6" x="380.42" y="476.57" width="60.89" height="45.59" transform="translate(821.73 998.73) rotate(-180)"/><polygon class="cls-6" points="380.42 611.82 441.31 611.82 441.31 564.36 410.87 564.36 380.42 564.36 380.42 611.82"/><rect class="cls-6" x="380.42" y="652.15" width="60.89" height="48.04" transform="translate(821.73 1352.34) rotate(-180)"/><rect class="cls-6" x="380.42" y="739.94" width="60.89" height="39.52" transform="translate(821.73 1519.39) rotate(-180)"/><polyline class="cls-5" points="455.81 337.55 366.59 337.55 455.81 435.15 366.59 435.15 455.81 522.32 366.59 522.32 455.81 611.24 366.59 611.24 455.81 700.65 366.59 700.65 455.81 780.36 366.77 779.46"/><line class="cls-5" x1="455.81" y1="374.98" x2="366.59" y2="374.98"/><line class="cls-6" x1="455.81" y1="462.76" x2="366.59" y2="462.33"/><line class="cls-6" x1="454.94" y1="550.23" x2="365.73" y2="549.79"/><line class="cls-6" x1="454.98" y1="638.2" x2="365.77" y2="637.76"/><line class="cls-6" x1="456.17" y1="726.22" x2="366.95" y2="725.79"/><line class="cls-7" x1="1508.84" y1="198.42" x2="-92.12" y2="198.42"/><line class="cls-7" x1="1123.17" y1="-27.32" x2="1123.17" y2="821.24"/><line class="cls-7" x1="708.36" y1="-27.32" x2="708.36" y2="821.24"/><line class="cls-7" x1="301.62" y1="-32.52" x2="301.62" y2="816.04"/><line class="cls-8" x1="1321.71" y1="-27.32" x2="1321.72" y2="821.24"/><line class="cls-8" x1="918.88" y1="-27.32" x2="918.89" y2="821.24"/><line class="cls-8" x1="505.64" y1="-27.32" x2="505.65" y2="821.24"/><line class="cls-8" x1="109.3" y1="-32.52" x2="109.31" y2="816.04"/><line class="cls-9" x1="1247.65" y1="591.91" x2="2009.14" y2="591.91"/><path class="cls-10" d="M-82.12,314.74s251.77,68,334.47-128.64S317.59-42.7,317.59-42.7"/><path class="cls-2" d="M251,331.91C245,302.19,229.66,228,229.66,228s-28.76,58.91-30.4,89.68c-1.67,31.42,18.48,105.88,18.48,105.88S258.56,369.12,251,331.91Z"/><path class="cls-2" d="M145.79,208.62c29.88-5.15,104.49-18.36,104.49-18.36s-58.06-30.45-88.76-33c-31.37-2.57-106.37,15.41-106.37,15.41S108.37,215.07,145.79,208.62Z"/><path class="cls-2" d="M174.42,344.51c1-17.67,3.16-61.86,3.16-61.86s-25.19,26.36-30.68,43c-5.61,17-5.11,62.33-5.11,62.33S173.21,366.64,174.42,344.51Z"/><path class="cls-2" d="M87.33,285c17.86,3.53,62.52,12.14,62.52,12.14s-28.71-29.17-45.91-37.1c-17.57-8.11-63.16-14.17-63.16-14.17S65,280.53,87.33,285Z"/><path class="cls-2" d="M153.44,246.8c14.68,2.47,51.35,8.49,51.35,8.49s-23.4-21.32-37.49-27c-14.39-5.86-51.86-10-51.86-10S135.07,243.71,153.44,246.8Z"/><path class="cls-2" d="M304.73,259.55C289.43,238.63,251,186.5,251,186.5s-2,51.83,7.61,75.49c9.8,24.17,52.17,75.28,52.17,75.28S323.89,285.74,304.73,259.55Z"/><path class="cls-2" d="M190.43,128c24.61-2.7,86-9.72,86-9.72s-50-28.45-75.66-32.19c-26.25-3.82-87.74,7.16-87.74,7.16S159.62,131.4,190.43,128Z"/><path class="cls-2" d="M361.37,215c-25-23.46-87.78-81.85-87.78-81.85s10.27,67.46,28.56,95.8C320.84,257.88,388.4,314,388.4,314S392.68,244.37,361.37,215Z"/><path class="cls-2" d="M380.32,129.56C358.54,101.05,303.83,30,303.83,30s1.81,67.23,16.37,98.81c14.86,32.26,74.58,102.33,74.58,102.33S407.58,165.25,380.32,129.56Z"/><path class="cls-2" d="M43.82,320.34c16.23-1.83,56.71-6.62,56.71-6.62s-37.48-22.28-55.31-25.38C27,285.16-13,293-13,293S23.49,322.63,43.82,320.34Z"/><path class="cls-2" d="M91.29,358c2.26-11.52,7.65-40.3,7.65-40.3s-31.27,18.68-38.77,29.8c-7.67,11.36-10,40.73-10,40.73S88.47,372.44,91.29,358Z"/><path class="cls-2" d="M38.44,349.23C42.12,341.47,51.2,322,51.2,322s-20.92,7.07-27.36,13.49-14.11,27-14.11,27S33.83,358.94,38.44,349.23Z"/><path class="cls-10" d="M1050.13-57.21S1009.86,305,505.65,322-128.51,100-128.51,100"/><path class="cls-10" d="M1473.76-57.21S1043.63,402.81,672-75.4"/></g><g id="Layer_3" data-name="Layer 3"><path class="cls-11" d="M863.49,413.17s-41.49-53.7-71.43,11.24S753.79,584,769.57,582.16,862.13,483.94,863.49,413.17Z"/><path class="cls-11" d="M1318,968.61h-83.52c23.35-40.49,52.36-95.08,74.13-150.13,18.89-47.71,32.32-95.78,31.93-135.34-1.28-129.73,39.51-19.09,50.1,32.76,9.16,44.74,6.69,174.17-29.38,134.57,0,0-29.93,134.33-47.11,156.54l-15-8"/><path class="cls-12" d="M1308.4,1075.61H789.79c23-107,64.22-279.45,37.36-563.39C811.43,346,1062.36,204.33,1191.64,454.33c93.33,180.46,135.82,340.5,137,471.15C1329.13,981.08,1322.15,1031.35,1308.4,1075.61Z"/><circle class="cls-4" cx="872.06" cy="501.05" r="26.78"/><circle class="cls-4" cx="1045.52" cy="501.05" r="26.78"/><path class="cls-13" d="M959.24,528s-50.46-2.72-61.38,63.89S1023,659.78,1023,602.3C1023,565.09,990.22,525.06,959.24,528Z"/><ellipse class="cls-14" cx="960" cy="541.69" rx="18.99" ry="13.86"/><path class="cls-13" d="M1141,1075.61H923.05c-18.77-72.38-30.1-159.08,18.23-208.46,76-77.62,164.07-57.47,211,37.68C1172.54,945.77,1157.73,1013.06,1141,1075.61Z"/><path class="cls-11" d="M1112.93,440.27c5.5-23.4,56.6-77.54,94.26-19s58.9,146,44.36,150C1189.57,588.26,1097,508,1112.93,440.27Z"/><path class="cls-15" d="M961.2,556.94c1.06,82.61-68.49,50.24-41.51,13.6"/><path class="cls-15" d="M1000.65,566.07c36.64,36.77-38,81-38.92-9.13"/><path class="cls-16" d="M866.65,499.66a10.42,10.42,0,1,1,20.83,0c0,8.52-13.25,18-20.83,18-9.46,0-20.83-9.79-20.83-18,0-4.74,4.67-10.42,10.42-10.42a10.42,10.42,0,0,1,10.41,10.42"/><path class="cls-15" d="M830.43,484.13s45.59-4.24,66.19-29.28"/><path class="cls-16" d="M1039.52,498.11a10.42,10.42,0,0,0-20.83,0c0,8.53,13.25,18,20.83,18,9.47,0,20.83-9.78,20.83-18,0-4.73-4.66-10.41-10.42-10.41a10.41,10.41,0,0,0-10.41,10.41"/><path class="cls-15" d="M1086.86,483.73s-45.59-4.25-66.19-29.29"/><path class="cls-17" d="M943.82,607.31s16.92,21.67,37.82.6c-1.13-1.19-17.58-6.18-19.86-36.94C961.78,571,952.17,609.86,943.82,607.31Z"/><path class="cls-18" d="M320.83,1085.5H192.71c-21-34.24-41.76-54-63.59-150.89-7.62-1.66-14.37-4.51-18.12-8.27a27.36,27.36,0,0,1,0-38.67,26.84,26.84,0,0,1,9.27-6.07c-.37-3.67-.73-7.4-1-11.13-7.84-98.6-32.92-120.28-55.38-143.2a16.57,16.57,0,0,1-7.07,1.58,16.91,16.91,0,0,1-16.93-16.93,17.14,17.14,0,0,1,.08-1.76c-14.51-2.43-30.7-11.19-30.7-36A28.53,28.53,0,0,1,27.85,647.4C23.64,581.26,64.57,505,178,528.83c43.73,9.18,72.58,27.86,91.61,49.07,40.76,45.49,36.27,102.62,36.27,102.62Z"/><path class="cls-19" d="M163.25,1036.81s133.84-37.76,143.52-66.57l-39.25-83.12s-24.85,49.31-138.4,47.49C122.18,934.5,162.46,1046.77,163.25,1036.81Z"/><path class="cls-19" d="M115.48,836.61s153.27,24.64,191.29-102.45-56.95-26-56.95-26S114,775.12,87.59,754.3C87.59,754.3,107.09,780.71,115.48,836.61Z"/><path class="cls-18" d="M341.72,485.23C334.46,471,329,457.41,327.55,446.38c-7.92-61.2,55.68-61.26,78.3-25.85,2.72,4.26,5.88,9.79,9.33,16.21"/><path class="cls-20" d="M356.78,462.44c-3.53-6.93-6.19-13.52-6.88-18.88C346.05,413.82,377,413.79,388,431c1.32,2.07,2.85,4.76,4.53,7.88"/><path class="cls-18" d="M668.6,496c7.26-14.25,12.74-27.81,14.17-38.85,7.91-61.2-55.68-61.25-78.31-25.84-2.71,4.25-5.87,9.79-9.32,16.2"/><path class="cls-20" d="M653.53,473.16c3.53-6.92,6.19-13.51,6.89-18.87,3.84-29.74-27.06-29.77-38-12.56-1.32,2.06-2.86,4.75-4.53,7.87"/><path class="cls-21" d="M691.78,623.85c-26,210.7-31.6,364.77-23.95,461.65H208.53C174.42,945.39,197.2,754,269.64,577.9c12.77-31,34.05-59.64,54.37-90.26C410.66,357,722.17,378.07,691.78,623.85Z"/><path class="cls-18" d="M590.2,583.26c24.4,11.56,97.91,32.1,114.71,36.7l3.2.9a1.71,1.71,0,0,0,.26.06c8.69,1.23,16.89-5.74,18.29-15.6s-4.54-18.84-13.23-20.07a13.4,13.4,0,0,0-3.52-.06l0-.44c5.15-2.4,10.34-7.54,11.28-14.14,1.39-9.86-2.28-17.09-12.54-20.5-16.13-5.38-77.53-38.26-107.35-36.71C554.42,515.85,561.15,569.46,590.2,583.26Z"/><path class="cls-18" d="M470.17,589.89c-29.17,8-114.82,18-134.38,20.25-1.91.22-3.19.38-3.73.43a2.14,2.14,0,0,1-.3,0,18,18,0,1,1,0-36,17.78,17.78,0,0,1,3.95.43l.05-.43a18,18,0,0,1,9-33.58c19.24,0,90.87-27.54,124-21.83C521,528.17,504.92,580.31,470.17,589.89Z"/><circle class="cls-4" cx="614.27" cy="553.11" r="24.77"/><circle class="cls-4" cx="453.79" cy="553.11" r="24.77"/><path class="cls-19" d="M533.25,577.45s46.66-2,56.77,59.68S474.21,700,474.24,646.77C474.25,612.34,504.59,574.74,533.25,577.45Z"/><ellipse class="cls-20" cx="532.91" cy="590.7" rx="17.57" ry="12.82"/><path class="cls-15" d="M532.91,603.52c-1,76.43,63.37,46.48,38.4,12.59"/><path class="cls-15" d="M496.41,612c-33.9,34,35.15,74.94,36-8.45"/><path class="cls-22" d="M573.22,1085.5H377.15c-17.51-63.72-38-138.1-16.78-181.06,43.46-88,109.16-85.48,179.45-13.67C588.78,940.8,582.13,1019.25,573.22,1085.5Z"/><circle class="cls-18" cx="650.73" cy="619.89" r="6.52"/><circle class="cls-18" cx="607.74" cy="615.2" r="6.52"/><circle class="cls-18" cx="620.79" cy="645.99" r="6.52"/><circle class="cls-18" cx="650.73" cy="644.02" r="6.52"/><circle class="cls-18" cx="629.64" cy="626.42" r="6.52"/><circle class="cls-18" cx="453.79" cy="618.49" r="6.52"/><circle class="cls-18" cx="425.34" cy="618.49" r="6.52"/><circle class="cls-18" cx="440.75" cy="636.6" r="6.52"/><circle class="cls-18" cx="420.45" cy="645.12" r="6.52"/><circle class="cls-18" cx="401.51" cy="625.02" r="6.52"/><path class="cls-16" d="M620.87,550.53a9.64,9.64,0,1,0-19.27,0c0,7.88,12.26,16.64,19.27,16.64,8.76,0,19.28-9,19.28-16.64,0-4.38-4.32-9.64-9.64-9.64a9.65,9.65,0,0,0-9.64,9.64"/><path class="cls-15" d="M650.73,537.22s-42.18-3.93-61.23-27.09"/><path class="cls-16" d="M459.73,550.42a9.64,9.64,0,0,1,19.27,0c0,7.89-12.26,16.65-19.27,16.65-8.76,0-19.28-9.06-19.28-16.65,0-4.38,4.32-9.63,9.64-9.63a9.64,9.64,0,0,1,9.64,9.63"/><path class="cls-15" d="M416.65,535.79s42.18-3.92,61.24-27.09"/><path class="cls-17" d="M551.47,650.35s-18.06,20.78-37.4,1.29c1-1.1,14.62-5.85,18-34.32C532.11,617.32,535.53,650.35,551.47,650.35Z"/></g></svg>