<svg xmlns="http://www.w3.org/2000/svg" viewBox="0 0 1381.14 802.42"><defs><style>.cls-1{fill:#404041;}.cls-2{fill:#58595b;}.cls-3{fill:#6d6e70;}.cls-4{fill:#fff;}.cls-5{fill:#231f20;}.cls-6{fill:#f1f1f2;}.cls-7{fill:none;stroke:#231f20;stroke-linecap:round;stroke-linejoin:round;stroke-width:2px;}.cls-8{fill:#e6e7e8;}.cls-9{fill:#414042;}.cls-10{fill:#ee222b;}.cls-11{fill:#a0866f;}.cls-12{fill:#e7c2a5;}.cls-13{fill:#fbe0c9;}.cls-14{fill:#603813;}</style></defs><g id="Layer_2" data-name="Layer 2"><g id="Layer_4" data-name="Layer 4"><path class="cls-1" d="M323.38,178.61c9.71-9.6,17.79-19.12,21.91-27.68,22.83-47.49-28.7-64.6-56.54-42-3.35,2.72-7.39,6.36-11.91,10.63"/><path class="cls-2" d="M317.28,156.1c4.72-4.67,8.65-9.29,10.65-13.46C339,119.57,314,111.26,300.45,122.26c-1.62,1.32-3.59,3.09-5.78,5.17"/><path class="cls-3" d="M355.55,315.11c-31.46-59,18.88-233.59-182.65-223.59C41.66,98,39.91,356,57,431.91,88.23,570.76,304.7,884.5,484.74,782.33,790.07,609.06,415,426.56,355.55,315.11Z"/><path class="cls-1" d="M157.36,107.51c1-6.14-3-12.67-5.59-16.1C130,62.93,75.85,67.59,87,119.08c2,9.28,7.38,23.33,20.53,27C125.63,151.22,154.33,126.05,157.36,107.51Z"/><path class="cls-2" d="M140.06,111.59c.38-2.32-1.24-5.8-2.19-7.13-10.11-14.1-43.14-20.31-29.7,15.74,1.26,3.38,5.88,6.26,10.87,7.67C125.9,129.8,138.91,118.63,140.06,111.59Z"/><path class="cls-1" d="M183.27,222.37c-24.84,7.48-98.06,17.87-114.79,20.18L65.3,243,65,243a15.38,15.38,0,1,1-.77-30.76,14.61,14.61,0,0,1,3.39.29l0-.37a15.35,15.35,0,0,1,7-28.86c16.5-.39,77.32-25.47,105.89-21.3C225.51,168.59,212.86,213.45,183.27,222.37Z"/><path class="cls-1" d="M255.73,223.37c19.67,10.76,79.58,31,93.28,35.51l2.61.88.21.06c7.13,1.37,14.24-4.27,15.84-12.62s-2.91-16.22-10-17.59a10.59,10.59,0,0,0-2.91-.18l0-.38a15.89,15.89,0,0,0,9-11.81c1.6-8.35-2.89-16.23-10-17.59-13.83-2.63-60.85-35.62-85.6-35.4C229.16,164.61,232.31,210.55,255.73,223.37Z"/><circle class="cls-4" cx="173.18" cy="198.42" r="21.15"/><circle class="cls-5" cx="173.18" cy="198.42" r="11.13"/><circle class="cls-4" cx="267.52" cy="197.24" r="21.15"/><circle class="cls-5" cx="267.52" cy="197.24" r="11.13"/><path class="cls-6" d="M222.32,214.32s-39.84-2.43-48.84,50.13,98.5,54.34,98.8,8.93C272.47,244,246.81,212.18,222.32,214.32Z"/><ellipse class="cls-2" cx="222.85" cy="225.15" rx="10.95" ry="15" transform="translate(-3.88 446.4) rotate(-89.59)"/><path class="cls-7" d="M196.48,259.8c-15.94,14.94,30.07,44,26.29-23.7"/><path class="cls-7" d="M249.14,260.17c15.73,15.16-30.69,43.55-25.95-24.06"/><circle class="cls-1" cx="126.04" cy="271.29" r="5.57"/><circle class="cls-1" cx="162.32" cy="264.39" r="5.57"/><circle class="cls-1" cx="153.29" cy="291.48" r="5.57"/><circle class="cls-1" cx="127.67" cy="291.82" r="5.57"/><circle class="cls-1" cx="144.43" cy="275.42" r="5.57"/><circle class="cls-1" cx="287.44" cy="255.49" r="5.57"/><circle class="cls-1" cx="311.27" cy="260.21" r="5.57"/><circle class="cls-1" cx="295.36" cy="272.82" r="5.57"/><circle class="cls-1" cx="310.94" cy="283.33" r="5.57"/><circle class="cls-1" cx="330.15" cy="269.63" r="5.57"/><path class="cls-8" d="M285.57,361.69s43.88-18.9,71.65,71.1C366.65,463.37,325,507,222.77,503.65c-96.39-3.12,114.37,281.06,198.34,109.52S549.77,510.8,549.77,510.8c4.44-9.35-146.86-127.93-166.68-163.54C362,309.3,285.57,361.69,285.57,361.69Z"/><path class="cls-9" d="M495.31,779.2c50.42,42.33,225-113,143.11-286.36-132-279.58-388.24-155.35-371.12-88.69C292.6,502.59,601.11,617.79,553,688S477.55,764.28,495.31,779.2Z"/><path class="cls-2" d="M469.37,334.77c-5.45,11.26-33.93,28.06-63.73,15.42-12.52-5.31-43.16-10.91-44.29-23.37s22.24-29.34,35.81-30.32C420.46,294.8,479.9,313,469.37,334.77Z"/><path class="cls-3" d="M216.26,387.81s132.14-67.29,145,9.48S320.52,486.92,292,497.1"/><path class="cls-8" d="M544.75,367.29S458.57,548.48,422.69,546.64c0,0,78.2,53.17,83.14,58.75,0,0,112.73-100.56,113.32-148.07C619.37,439.72,578.7,382.42,544.75,367.29Z"/><path class="cls-8" d="M659.93,584.67s-76.64,72.67-106.16,70.94c0,0,11.7,20.18-1.84,33.95,0,0,66.33,30.31,81.84-.59S664.49,617.91,659.93,584.67Z"/><path class="cls-3" d="M448,564s112-128.41,110.49,109.5"/><path class="cls-10" d="M462.79,239.33a19.53,19.53,0,1,0-35.62-16.05c-6.57,14.57,8.79,41,21.75,46.81,16.19,7.3,43.16-.68,49.49-14.71,3.64-8.1,0-21.41-9.79-25.84a19.53,19.53,0,0,0-25.83,9.79"/><path class="cls-10" d="M37.19,136.16a19.53,19.53,0,1,0-35.62-16c-6.57,14.57,8.8,41,21.76,46.81,16.19,7.3,43.16-.68,49.48-14.71,3.65-8.09,0-21.4-9.79-25.83a19.52,19.52,0,0,0-25.83,9.78"/><path class="cls-10" d="M85.52,307.32A19.53,19.53,0,1,0,49.9,291.27c-6.57,14.57,8.8,41,21.76,46.81,16.19,7.3,43.16-.68,49.48-14.71,3.65-8.1,0-21.4-9.78-25.84a19.54,19.54,0,0,0-25.84,9.79"/><path class="cls-10" d="M144.48,407.15a10.9,10.9,0,0,0-19.88-9c-3.66,8.13,4.91,22.86,12.14,26.12,9,4.07,24.08-.38,27.61-8.21,2-4.52,0-11.94-5.46-14.41a10.89,10.89,0,0,0-14.41,5.46"/><path class="cls-10" d="M388.86,139.29a11.6,11.6,0,0,0-21.15-9.53c-3.9,8.65,5.23,24.33,12.92,27.8,9.61,4.33,25.63-.41,29.38-8.74,2.17-4.81,0-12.71-5.81-15.34a11.6,11.6,0,0,0-15.34,5.81"/><path class="cls-10" d="M399.61,367.13a10.9,10.9,0,1,0-19.87-9c-3.66,8.13,4.91,22.86,12.14,26.12,9,4.07,24.08-.38,27.61-8.21,2-4.52,0-11.94-5.46-14.41a10.9,10.9,0,0,0-14.42,5.46"/><path class="cls-10" d="M618.92,289.42a20.71,20.71,0,1,0-37.76-17c-7,15.44,9.32,43.43,23.06,49.62,17.17,7.74,45.76-.72,52.46-15.59,3.87-8.58.05-22.69-10.37-27.39a20.71,20.71,0,0,0-27.39,10.37"/><path class="cls-10" d="M61.61,491.57a28.09,28.09,0,1,0-51.23-23.08C.94,489.44,23,527.41,41.67,535.81c23.29,10.49,62.07-1,71.16-21.16,5.25-11.64.08-30.78-14.07-37.15a28.08,28.08,0,0,0-37.15,14.07"/></g><g id="Layer_3" data-name="Layer 3"><path class="cls-11" d="M1346.53,587.23s-6.73,188.34-43.44,122.59c0,0-.15,15.07-1.73,35.3h-81.52c.33-1.68.68-3.13,1-4.34,11.91-41,36.74-87.58,59.2-140.94,24.39-57.88,46-123.68,45.29-198.79-1.3-144.36,40.34-21.25,51.16,36.43C1385.88,487.28,1383.35,631.29,1346.53,587.23Z"/><path class="cls-11" d="M785.77,59.16s-31.53-59.64-69.87,0-60.49,152.05-45.15,152.71S773.84,129,785.77,59.16Z"/><path class="cls-12" d="M1320.06,783.13H767.44c76.58-258.85-93-426.21-29.28-687.22,40.27-165.1,269.5-85.84,318.56,5.65,128.06,238.83,215.26,411.7,248.65,548.63C1317.17,698.55,1322.26,742.42,1320.06,783.13Z"/><circle class="cls-4" cx="743.9" cy="152.55" r="27.26"/><circle class="cls-5" cx="735.95" cy="152.55" r="14.35"/><circle class="cls-4" cx="836.96" cy="149.9" r="27.26"/><circle class="cls-5" cx="830.33" cy="149.9" r="14.35"/><path class="cls-13" d="M737.15,195.71s-48.95,7.66-31.82,82.21,230.72,88.84,143-27.58C823,216.66,780.91,183.77,737.15,195.71Z"/><ellipse class="cls-14" cx="744.31" cy="208.51" rx="21.52" ry="15.71" transform="matrix(0.99, -0.16, 0.16, 0.99, -23.59, 120.21)"/><path class="cls-7" d="M722.72,269.67c-14.24,27.93,62,44.69,23.92-44.78"/><path class="cls-7" d="M794,244.52c28.61,12.79-20.19,73.71-46.75-19.83"/><path class="cls-13" d="M1076.61,675.72c-8.61,34.42-17.65,71.91-23.95,107.41H856C859,708,867,619.79,902.9,556.38,982.46,415.82,1105.78,559,1076.61,675.72Z"/><path class="cls-11" d="M946.66,102.89c-2.69-28.52,71.72-91.47,110.06-31.83s48.22,158.51,32.88,159.16S963.9,285.88,946.66,102.89Z"/><path class="cls-7" d="M815.88,114.21s16.75,13.87,48.57,7.24"/><path class="cls-7" d="M774.93,89.33s-24.59-31.69-48.66,7.61"/></g></g></svg>