<?xml version="1.0" encoding="utf-8"?>
<!-- Generator: Adobe Illustrator 24.1.0, SVG Export Plug-In . SVG Version: 6.00 Build 0)  -->
<svg version="1.1" id="Layer_1" xmlns="http://www.w3.org/2000/svg" xmlns:xlink="http://www.w3.org/1999/xlink" x="0px" y="0px"
	 viewBox="0 0 578.4 723.5" style="enable-background:new 0 0 578.4 723.5;" xml:space="preserve">
<style type="text/css">
	.st0{fill:#00404F;}
	.st1{fill:none;stroke:#061D2F;stroke-width:3;stroke-linecap:square;stroke-miterlimit:10;}
	.st2{fill:#061D2F;}
	.st3{fill:#061D2F;stroke:#FFFFFF;stroke-linecap:round;stroke-miterlimit:10;}
	.st4{fill:none;stroke:#F58220;stroke-width:2;stroke-linecap:square;stroke-miterlimit:10;}
	.st5{fill:#F58220;}
	.st6{fill:#F58220;stroke:#FFFFFF;stroke-linecap:round;stroke-miterlimit:10;}
	.st7{fill:#FFF3CD;}
	.st8{font-family:'Roboto-Regular';}
	.st9{font-size:73px;}
</style>
<g id="Layer_2_1_">
	<g id="Layer_13">
		<circle class="st0" cx="300" cy="353.2" r="198.5"/>
		<path class="st1" d="M41.5,489c0,0-1.9-6.2,2.9-27.1c3.2-14,9.4-34.6,21.2-64.4c13.8-34.9,35.2-82.2,68.3-146.3
			c12.7-24.5,27-44.3,42.6-60.3c24.7-25.8,56.1-44.3,90.6-53.5c48.8-13.2,97.9-7.2,134.2,1.7c1.8,0.4,3.6,0.9,5.4,1.4
			c31.6,8.2,52.2,18.3,52.2,18.3"/>
		<path class="st2" d="M155.9,94.2c1.3,32.9,4.8,115,4.8,115s34.8-59.6,40.7-92.5c6-33.6-1.9-116.7-1.9-116.7S154.3,53,155.9,94.2z"
			/>
		<path class="st2" d="M228,91.2c-3.4,18.9-11.7,66.3-11.7,66.3s26.9-24.9,34.3-42.1c7.6-17.5,13.6-66.5,13.6-66.5
			S232.2,67.5,228,91.2z"/>
		<path class="st2" d="M195.2,225.7c-13.8,0.7-48.3,2.5-48.3,2.5s25,17.4,38.8,20.3c14.1,3,49-1.1,49-1.1S212.5,224.9,195.2,225.7z"
			/>
		<path class="st2" d="M96.4,164.8c11,24.7,38.9,86.2,38.9,86.2s9.2-55.6,3.8-82.5c-5.6-27.4-37.1-88.4-37.1-88.4
			S82.6,133.9,96.4,164.8z"/>
		<path class="st3" d="M109.1,324.2c32.7,16.1,51.1,16.5,68.3,19.8"/>
		<path class="st2" d="M38.1,205c19.6,28.8,68.8,100.4,68.8,100.4s0.2-74.2-12.6-107.3c-13-33.8-67-103.7-67-103.7
			S13.6,169,38.1,205z"/>
		<path class="st2" d="M8.6,294.5c15.9,33.8,56,118,56,118s7.9-72.8-0.9-108.8C54.5,266.8,9.8,183,9.8,183S-11.4,252.3,8.6,294.5z"
			/>
		<path class="st2" d="M306.2,88.2c-3.7,12.1-12.8,42.4-12.8,42.4s31.3-15.8,39.8-26.8c8.6-11.2,14.9-42.5,14.9-42.5
			S310.8,73,306.2,88.2z"/>
		<path class="st2" d="M353.4,105c-4.5,7.8-15.6,27.6-15.6,27.6s20.2-4.7,27-10.8c7-6.2,16.8-27.2,16.8-27.2S359,95.2,353.4,105z"/>
		<path class="st2" d="M214.6,260.8c-24.3,0.8-85,3.2-85,3.2s41.8,36,65.7,42.4c24.4,6.5,86.1-0.2,86.1-0.2S245.1,259.7,214.6,260.8
			z"/>
		<path class="st2" d="M265.2,192.4c-23.1-2.9-80.9-9.6-80.9-9.6s41.2,54.9,64.3,67.4c23.5,12.8,82,13.8,82,13.8
			S294.1,196,265.2,192.4z"/>
		<path class="st2" d="M280.9,154.6c-11.9-2.7-41.6-9.2-41.6-9.2s18.4,28.2,29.7,35.4c11.5,7.4,42,11.2,42,11.2
			S295.8,157.9,280.9,154.6z"/>
		<path class="st2" d="M341.1,159.3c-10.5-8-36.8-27.9-36.8-27.9s5.6,37.4,13.5,49.9c8.1,12.7,36.2,30.2,36.2,30.2
			S354.2,169.4,341.1,159.3z"/>
		<path class="st2" d="M186,328c-24.1-3.3-84.4-11.2-84.4-11.2s35.1,42.6,57.6,53c23,10.6,84.9,14.4,84.9,14.4S216.1,332.2,186,328z
			"/>
		<path class="st4" d="M577.4,272.5c0,0,0.7,6.4-7.9,26c-5.8,13.1-15.7,32.2-32.8,59.3c-20,31.7-49.9,74.3-94.4,131
			c-17,21.7-34.8,38.5-53,51.4c-29.1,20.8-63.3,33.1-99,35.8c-50.4,3.9-97.6-11.1-131.6-26.6c-1.7-0.8-3.4-1.6-5.1-2.4
			c-29.5-14-47.9-27.8-47.9-27.8"/>
		<path class="st5" d="M391.6,639.1c4.9-32.5,16.7-113.9,16.7-113.9s-45.3,52-57.1,83.3c-12.2,32-19.9,115-19.9,115
			S385.5,679.8,391.6,639.1z"/>
		<path class="st5" d="M320.2,628.6c6.9-18,23.8-62.9,23.8-62.9s-31,19.5-41.5,35c-10.7,15.8-25.7,62.8-25.7,62.8
			S311.6,651.1,320.2,628.6z"/>
		<path class="st5" d="M377.4,502.6c13.7,1.9,47.9,6.5,47.9,6.5s-21.3-21.7-34.4-27.2c-13.3-5.6-48.4-8.1-48.4-8.1
			S360.3,500.2,377.4,502.6z"/>
		<path class="st5" d="M463.2,580.8c-6.3-26.3-22.2-92-22.2-92s-19.4,52.9-19,80.3c0.4,28,20,93.8,20,93.8S471.1,613.7,463.2,580.8z
			"/>
		<path class="st6" d="M480.4,421.8c-29.2-21.9-47.2-25.7-63.4-32.1"/>
		<path class="st5" d="M528,552.1c-13.9-31.9-49-111.5-49-111.5s-14,72.8-7.6,107.7c6.5,35.6,46.5,114.4,46.5,114.4
			S545.4,592.1,528,552.1z"/>
		<path class="st5" d="M573.7,469.6c-9.4-36.1-33.1-126.3-33.1-126.3s-21.3,70-19.3,107.1c2,37.9,30.5,128.6,30.5,128.6
			S585.4,514.9,573.7,469.6z"/>
		<path class="st5" d="M242.9,617.1c5.9-11.2,20.4-39.3,20.4-39.3s-33.7,9.7-44.1,18.9c-10.6,9.4-22.6,39-22.6,39
			S235.5,631.1,242.9,617.1z"/>
		<path class="st5" d="M199.6,591.8c5.9-6.9,20.4-24.2,20.4-24.2s-20.7,0.9-28.5,5.5c-8,4.8-21.6,23.6-21.6,23.6
			S192.3,600.4,199.6,591.8z"/>
		<path class="st5" d="M364.9,464.5c24,3.7,84.2,12.6,84.2,12.6s-34.4-43.1-56.7-53.9c-22.8-11-84.7-15.8-84.7-15.8
			S334.8,459.9,364.9,464.5z"/>
		<path class="st5" d="M302.5,522.3c22.2,7.1,77.7,24.5,77.7,24.5s-30.3-61.6-50.6-78.2c-20.8-16.9-78-28.8-78-28.8
			S274.8,513.3,302.5,522.3z"/>
		<path class="st5" d="M280,556.6c11.2,4.8,39.1,16.8,39.1,16.8s-12.8-31.1-22.6-40.2c-10-9.4-39.1-18.8-39.1-18.8
			S266,550.5,280,556.6z"/>
		<path class="st5" d="M221.8,540.7c8.8,9.8,30.9,34.2,30.9,34.2s1.5-37.8-4-51.6c-5.6-14-30-36.4-30-36.4S210.7,528.3,221.8,540.7z
			"/>
		<path class="st5" d="M405.5,403.7c23.1,7.7,80.8,26.7,80.8,26.7s-26.6-48.4-46.7-62.7c-20.6-14.7-80.8-29.9-80.8-29.9
			S376.7,394.1,405.5,403.7z"/>
	</g>
</g>
<text transform="matrix(1 0 0 1 190.835 376)" class="st7 st8 st9">paused</text>
</svg>
