<svg xmlns="http://www.w3.org/2000/svg" viewBox="0 0 535.45 748.67"><defs><style>.cls-1{fill:#00404f;}.cls-2,.cls-5{fill:none;stroke-linecap:square;}.cls-2{stroke:#061d2f;stroke-width:3px;}.cls-2,.cls-4,.cls-5,.cls-7{stroke-miterlimit:10;}.cls-3,.cls-4{fill:#061d2f;}.cls-4,.cls-7{stroke:#fff;stroke-linecap:round;}.cls-5{stroke:#f58220;stroke-width:2px;}.cls-6,.cls-7{fill:#f58220;}.cls-8{font-size:53px;fill:#fff3cd;font-family:Roboto-Regular, Roboto;}</style></defs><g id="Layer_2" data-name="Layer 2"><g id="Layer_13" data-name="Layer 13"><circle class="cls-1" cx="280.8" cy="375.74" r="198.5"/><path class="cls-2" d="M2,289s3-5.7,21.17-17.09c12.16-7.62,31.11-17.81,60.49-30.52,34.37-14.9,83-33.27,151.77-55.12,26.25-8.35,50.45-12.2,72.77-12.55a194.71,194.71,0,0,1,101.91,26.19C454,225.09,484.51,264,503.87,296q1.47,2.43,2.85,4.81c16.5,28.22,23.94,49.95,23.94,49.95"/><path class="cls-3" d="M362.06,90.71c-22.35,24.15-77.94,84.73-77.94,84.73s66.69-17.52,94.15-36.67c28.05-19.55,81.23-83.86,81.23-83.86S390,60.46,362.06,90.71Z"/><path class="cls-3" d="M415.12,139.55c-15.78,11-55.14,38.58-55.14,38.58s36.62,1.36,54-5.54c17.74-7,56.62-37.43,56.62-37.43S434.89,125.81,415.12,139.55Z"/><path class="cls-3" d="M296.87,211.49c-10.24-9.28-35.95-32.36-35.95-32.36s5.34,30,13.05,41.79c7.88,12.09,35.41,33.9,35.41,33.9S309.7,223.11,296.87,211.49Z"/><path class="cls-3" d="M270,98.52C260.4,123.78,236.58,187,236.58,187s45.84-32.82,61-55.64C313,108.05,333.82,42.6,333.82,42.6S282.1,66.88,270,98.52Z"/><path class="cls-4" d="M166.26,220.19C178,254.75,190.77,268,200.57,282.48"/><path class="cls-3" d="M200.39,85.73c-6.49,34.2-22.34,119.69-22.34,119.69s52.59-52.31,67-84.72C259.72,87.6,271,0,271,0S208.51,42.91,200.39,85.73Z"/><path class="cls-3" d="M116.2,128.14c-12.62,35.12-43.85,123-43.85,123s57-45.86,76.29-77.62c19.66-32.45,47.28-123.41,47.28-123.41S132,84.16,116.2,128.14Z"/><path class="cls-3" d="M472.55,192.66c-11.18,5.94-39,21-39,21s33.34,11,47.07,9.21c14-1.79,40.65-19.52,40.65-19.52S486.55,185.22,472.55,192.66Z"/><path class="cls-3" d="M494.06,237.93c-8.72,2.38-30.49,8.47-30.49,8.47s17.61,10.94,26.71,11.5c9.29.56,31.1-7.37,31.1-7.37S505,234.94,494.06,237.93Z"/><path class="cls-3" d="M285.81,250c-17.78-16.6-62.42-57.84-62.42-57.84s4.1,55,16.49,76.47C252.54,290.53,301,329.35,301,329.35S308.06,270.77,285.81,250Z"/><path class="cls-3" d="M369.84,237.38c-14.31-18.38-50.37-64-50.37-64s-9.67,68-2.2,93.09c7.62,25.66,48.23,67.76,48.23,67.76S387.76,260.4,369.84,237.38Z"/><path class="cls-3" d="M407.75,221.72c-6.5-10.3-22.9-35.91-22.9-35.91s-6.92,32.91-4,46c3,13.36,21.72,37.6,21.72,37.6S415.89,234.62,407.75,221.72Z"/><path class="cls-3" d="M446.94,267.69c-1.73-13.09-6.29-45.72-6.29-45.72s-22.54,30.42-25.77,44.83c-3.29,14.72,4.31,46.95,4.31,46.95S449.11,284.07,446.94,267.69Z"/><path class="cls-3" d="M218,277.29c-14.7-19.37-51.7-67.59-51.7-67.59s-5.29,54.91,3.28,78.16c8.75,23.74,49.89,70.21,49.89,70.21S236.37,301.55,218,277.29Z"/><path class="cls-5" d="M534,514.75s-4,5-24,12.86c-13.36,5.23-33.88,11.71-65.11,18.75-36.54,8.24-87.76,17.25-159.38,25.94-27.33,3.31-51.84,2.6-73.83-1.2a194.7,194.7,0,0,1-95.27-44.69C78.1,493.49,55.33,449.58,42.25,414.55q-1-2.66-1.91-5.26c-11-30.79-14.23-53.52-14.23-53.52"/><path class="cls-6" d="M143.42,642.61c26.45-19.58,92.34-68.76,92.34-68.76s-68.79,4.82-99.33,18.52c-31.19,14-95.41,67.3-95.41,67.3S110.31,667.13,143.42,642.61Z"/><path class="cls-6" d="M100.37,584.75c17.55-7.85,61.35-27.65,61.35-27.65S126,549,107.65,552.5c-18.75,3.63-62.6,26.26-62.6,26.26S78.39,594.58,100.37,584.75Z"/><path class="cls-6" d="M229.93,536.06c8.34,11,29.31,38.47,29.31,38.47s.32-30.42-5.05-43.48c-5.5-13.35-28.49-39.9-28.49-39.9S219.49,522.25,229.93,536.06Z"/><path class="cls-6" d="M235.3,652.05c14.16-23,49.32-80.73,49.32-80.73s-51.14,23.73-70.26,43.34c-19.53,20-52.13,80.47-52.13,80.47S217.56,680.89,235.3,652.05Z"/><path class="cls-7" d="M359.88,551.79c-5.11-36.14-15.19-51.53-22.13-67.58"/><path class="cls-6" d="M301.35,677.56c12.74-32.39,44.2-113.45,44.2-113.45S284.16,605.73,264,634.9c-20.6,29.8-48,113.77-48,113.77S285.41,718.12,301.35,677.56Z"/><path class="cls-6" d="M392,651.55c18.93-32.16,66-112.71,66-112.71s-64.57,34.46-89.39,62.09c-25.35,28.23-69.4,112.46-69.4,112.46S368.26,691.82,392,651.55Z"/><path class="cls-6" d="M53.82,521.89C65.91,518.14,96,508.54,96,508.54s-30.73-17-44.55-17.8c-14.12-.84-43.56,11.62-43.56,11.62S38.68,526.6,53.82,521.89Z"/><path class="cls-6" d="M41.1,473.42c9-.72,31.53-2.66,31.53-2.66s-15.27-14-24.1-16.26c-9-2.28-31.93,1.45-31.93,1.45S29.81,474.32,41.1,473.42Z"/><path class="cls-6" d="M248,500.29c14.38,19.61,50.58,68.44,50.58,68.44s6.19-54.82-2-78.2c-8.36-23.89-48.72-71-48.72-71S230,475.73,248,500.29Z"/><path class="cls-6" d="M163.05,497.05c10.64,20.72,37.6,72.23,37.6,72.23s22.14-65,19.47-91.06c-2.72-26.63-34.8-75.54-34.8-75.54S149.72,471.1,163.05,497.05Z"/><path class="cls-6" d="M122.89,505.39c4.47,11.33,15.82,39.54,15.82,39.54s12.92-31,12.5-44.43c-.42-13.68-14.35-41-14.35-41S117.29,491.2,122.89,505.39Z"/><path class="cls-6" d="M92.93,452.94C92.2,466.12,90.61,499,90.61,499s27.8-25.7,33.65-39.26c6-13.86,4.5-46.93,4.5-46.93S93.84,436.43,92.93,452.94Z"/><path class="cls-6" d="M319.7,486.07c10.84,21.77,38.24,76,38.24,76s15.4-53,11.3-77.41c-4.18-25-36-78.26-36-78.26S306.12,458.81,319.7,486.07Z"/><text class="cls-8" transform="translate(187.39 393.71)">resume</text></g></g></svg>