<svg id="Layer_3" data-name="Layer 3" xmlns="http://www.w3.org/2000/svg" viewBox="0 0 1920 1080"><defs><style>.cls-1{fill:#00404f;}.cls-2{fill:#061d2f;}.cls-3{fill:#1a1a1a;}.cls-4{fill:#404041;}.cls-5{fill:#f1f1f2;}.cls-6{fill:#58595b;}.cls-7{fill:#6d6e70;}.cls-8{fill:#fff;}.cls-9{fill:#231f20;}.cls-10{fill:none;stroke:#231f20;stroke-linecap:round;stroke-linejoin:round;stroke-width:2px;}.cls-11{fill:#333;}.cls-12{fill:#4d4d4d;}</style></defs><rect class="cls-1" width="1928" height="1080" transform="translate(1928 1080) rotate(-180)"/><path class="cls-2" d="M0,546.58s17.12-91,66-73.83S101.5,554.49,95.39,573c0,0,121.07-40.87,135.74,63.28,0,0,604.13-199.08,761.89,29,0,0,9.78-159.53,123.52-93.61,0,0,15.89-150.3,185.88-88.34,0,0,133.3-50.1,134.52,79.11,0,0,156.54,54.05,101.51,228.09,0,0,56.25-170.08,178.54-116,0,0-3.67-51.42,50.14-38.24,0,0,11-167.44,152.87-167.44V1099H0Z"/><polygon class="cls-3" points="1112.56 217.03 951.53 291.3 362.35 534.4 370.3 422.52 930.42 144.62 1112.56 217.03"/><polygon class="cls-3" points="363.58 575.37 540.83 569.71 1178.16 575.37 1127.25 675.3 503.11 713.02 363.58 575.37"/><path class="cls-4" d="M1234,428.42c0,.58.07,1.14.07,1.72a16.48,16.48,0,0,1-16.5,16.5,16.11,16.11,0,0,1-6.9-1.54c-21.89,22.35-46.35,43.49-54,139.62-.29,3.64-.64,7.27-1,10.86a26.24,26.24,0,0,1,9,5.91,26.69,26.69,0,0,1,0,37.71c-3.66,3.66-10.24,6.44-17.67,8.06-24.71,109.64-83,189.48-83,189.48L957,878.13l17.65-478.61s-9.42-119.74,124.68-147.9c110.61-23.24,150.52,51.13,146.41,115.61a27.83,27.83,0,0,1,18.14,26.06C1263.91,417.51,1248.13,426.05,1234,428.42Z"/><path class="cls-5" d="M1113.76,746.9S983.27,710.08,973.83,682l38.27-81S1036.32,649,1147,647.26C1153.8,647.15,1114.53,756.61,1113.76,746.9Z"/><path class="cls-5" d="M1160.33,551.71s-177.56,29.14-186.5-99.88c-9.3-134.17,46.58-26.05,96.58-5,49.68,20.92,91.42,44.93,117.12,24.63C1187.53,471.46,1168.51,497.21,1160.33,551.71Z"/><path class="cls-4" d="M910.29,348.52c7.81-15.34,13.7-29.93,15.24-41.8,8.52-65.86-59.91-65.92-84.26-27.82-2.92,4.58-6.32,10.54-10,17.44"/><path class="cls-6" d="M894.07,324c3.8-7.46,6.67-14.55,7.41-20.32,4.14-32-29.11-32-40.94-13.51-1.42,2.22-3.07,5.12-4.88,8.47"/><path class="cls-4" d="M625.37,351.53c-7.81-15.34-13.71-29.93-15.25-41.8-8.51-65.86,59.92-65.92,84.26-27.82,2.93,4.58,6.33,10.54,10,17.44"/><path class="cls-6" d="M641.58,327c-3.79-7.46-6.66-14.55-7.41-20.32-4.13-32,29.12-32,41-13.51,1.42,2.22,3.07,5.12,4.87,8.47"/><path class="cls-7" d="M506.43,1026.22c-29.5-153.46-9.58-403,81.53-631,61.66-154.31,302-155,368.4,0,112,261.53,131.86,486.64,87.55,636.57"/><path class="cls-4" d="M709.56,466.83C678.17,475.47,586,486.25,565,488.62c-2.05.23-3.42.41-4,.47a2.39,2.39,0,0,1-.32,0,19.39,19.39,0,1,1,0-38.77,18.55,18.55,0,0,1,4.24.46l.06-.46a19.37,19.37,0,0,1,9.7-36.14c20.71,0,97.78-29.64,133.47-23.49C764.23,400.42,747,456.52,709.56,466.83Z"/><path class="cls-4" d="M844.58,466.83c31.39,8.64,123.55,19.42,144.6,21.79l4,.47a2.39,2.39,0,0,0,.32,0,19.39,19.39,0,0,0,0-38.77,18.64,18.64,0,0,0-4.25.46l-.06-.46a19.36,19.36,0,0,0-9.69-36.14c-20.71,0-97.78-29.64-133.48-23.49C789.9,400.42,807.18,456.52,844.58,466.83Z"/><circle class="cls-8" cx="689.52" cy="427.25" r="26.66"/><circle class="cls-9" cx="689.52" cy="427.25" r="14.03"/><circle class="cls-8" cx="862.2" cy="427.25" r="26.66"/><circle class="cls-9" cx="862.2" cy="427.25" r="14.03"/><path class="cls-5" d="M776.31,454.06s-50.23-2.71-61.11,63.6S839.82,585.27,839.79,528C839.78,491,807.15,451.14,776.31,454.06Z"/><ellipse class="cls-6" cx="777.07" cy="467.7" rx="18.91" ry="13.8"/><path class="cls-10" d="M744.15,511.6c-20,19,38.28,55.16,32.92-30.1"/><path class="cls-10" d="M810.52,511.6c20,19-38.29,55.16-32.92-30.1"/><circle class="cls-4" cx="650.28" cy="499.12" r="7.02"/><circle class="cls-4" cx="696.54" cy="494.07" r="7.02"/><circle class="cls-4" cx="682.5" cy="527.2" r="7.02"/><circle class="cls-4" cx="650.28" cy="525.07" r="7.02"/><circle class="cls-4" cx="672.97" cy="506.14" r="7.02"/><circle class="cls-4" cx="862.2" cy="497.61" r="7.02"/><circle class="cls-4" cx="892.82" cy="497.61" r="7.02"/><circle class="cls-4" cx="876.24" cy="517.1" r="7.02"/><circle class="cls-4" cx="898.08" cy="526.26" r="7.02"/><circle class="cls-4" cx="918.47" cy="504.63" r="7.02"/><path class="cls-3" d="M1097.39,1080.2,1141.52,638c-383.86,131.19-743.42-1-743.42-1l46.5,443Z"/><path class="cls-11" d="M1159.25,730.79l18.91-154.55c-420.79,117.31-814.95-.87-814.95-.87L382.28,723.5S693.73,839.15,1159.25,730.79Z"/><path class="cls-11" d="M319.21,383.9,362,533.6c341.84-272,750.89-316.71,750.89-316.71l-75.27-129S705.73,102.73,319.21,383.9Z"/><circle class="cls-11" cx="662.45" cy="172.79" r="34.88"/><circle class="cls-12" cx="984.89" cy="610.25" r="80.14"/><circle class="cls-12" cx="562.51" cy="615.91" r="80.14"/></svg>