<svg id="Layer_1" data-name="Layer 1" xmlns="http://www.w3.org/2000/svg" viewBox="0 0 386.62 474.78"><defs><style>.cls-1{fill:#a0866f;}.cls-2{fill:#e7c2a5;}.cls-3{fill:#fff;}.cls-4{fill:#231f20;}.cls-5{fill:#fbe0c9;}.cls-6{fill:#603813;}.cls-7{fill:none;stroke:#231f20;stroke-linecap:round;stroke-linejoin:round;stroke-width:2px;}</style></defs><path class="cls-1" d="M372.67,459.4s75.26-112.92,74.6-179.09,20.15-9.73,25.56,16.71c4.66,22.82,3.4,88.83-15,68.64,0,0-3.36,86.32-21.71,56.19,0,0-3.35,44.42-12.65,60.26" transform="translate(-88.51 -49.6)"/><ellipse class="cls-2" cx="35.61" cy="436.38" rx="35.61" ry="32.76"/><ellipse class="cls-2" cx="308.23" cy="436.38" rx="35.61" ry="32.76"/><circle class="cls-1" cx="303.46" cy="444.77" r="16.05"/><circle class="cls-1" cx="307.08" cy="417.77" r="7.98"/><circle class="cls-1" cx="326.27" cy="425.81" r="6.7"/><circle class="cls-1" cx="328.89" cy="443.5" r="5.82"/><path class="cls-2" d="M361.12,510c-5.22,4.49-136.65,26.39-194.48-6.18-52.78-29.72-62.49-224,5.74-394.79C204,30,327.1,29.6,361.12,109,442.57,299.21,428.91,451.8,361.12,510Z" transform="translate(-88.51 -49.6)"/><circle class="cls-3" cx="135.91" cy="75.85" r="13.66"/><circle class="cls-4" cx="135.91" cy="75.85" r="7.19"/><circle class="cls-3" cx="224.37" cy="75.85" r="13.66"/><circle class="cls-4" cx="224.37" cy="75.85" r="7.19"/><path class="cls-5" d="M268.88,139.19s-25.74-1.39-31.31,32.59,63.84,34.63,63.83,5.31C301.39,158.12,284.68,137.7,268.88,139.19Z" transform="translate(-88.51 -49.6)"/><ellipse class="cls-6" cx="180.76" cy="96.58" rx="9.69" ry="7.07"/><path class="cls-7" d="M252.4,168.67c-10.22,9.72,19.62,28.26,16.87-15.42" transform="translate(-88.51 -49.6)"/><path class="cls-7" d="M286.4,168.67c10.23,9.72-19.61,28.26-16.86-15.42" transform="translate(-88.51 -49.6)"/><path class="cls-5" d="M166.64,503.83s47.1,22,52.89-10.81S171,366.63,214.18,322.51c38.75-39.6,102.94-32.23,126.89,16.3,21.05,42.65-32.4,141.4-16.62,161,14.33,17.81,36.67,10.2,36.67,10.2C322.24,531.77,207.34,528.1,166.64,503.83Z" transform="translate(-88.51 -49.6)"/><circle class="cls-1" cx="40.3" cy="442.19" r="16.05"/><circle class="cls-1" cx="13.27" cy="438.66" r="7.98"/><circle class="cls-1" cx="21.25" cy="419.44" r="6.7"/><circle class="cls-1" cx="38.93" cy="416.76" r="5.82"/><path class="cls-1" d="M196.23,90.63s-15.79-29.88-35,0-30.3,76.17-22.62,76.5S190.25,125.63,196.23,90.63Z" transform="translate(-88.51 -49.6)"/><path class="cls-1" d="M342.63,93.85s15.79-29.88,35,0,30.3,76.17,22.62,76.5S348.61,128.85,342.63,93.85Z" transform="translate(-88.51 -49.6)"/></svg>