<?xml version="1.0" encoding="utf-8"?>
<!-- Generator: Adobe Illustrator 24.1.0, SVG Export Plug-In . SVG Version: 6.00 Build 0)  -->
<svg version="1.1" id="Layer_1" xmlns="http://www.w3.org/2000/svg" xmlns:xlink="http://www.w3.org/1999/xlink" x="0px" y="0px"
	 viewBox="0 0 257.7 316.5" style="enable-background:new 0 0 257.7 316.5;" xml:space="preserve">
<style type="text/css">
	.st0{fill:#A0866F;}
	.st1{fill:#E7C2A5;}
	.st2{fill:#FFFFFF;}
	.st3{fill:#FBE0C9;}
	.st4{fill:#603913;}
	.st5{fill:none;stroke:#231F20;stroke-width:2;stroke-linecap:round;stroke-linejoin:round;}
	.st6{fill:#EE222B;}
	.st7{fill:#231F20;stroke:#231F20;stroke-width:2;stroke-linecap:round;stroke-linejoin:round;}
</style>
<g id="Layer_2_1_">
	<g id="Layer_3">
		<path class="st0" d="M189.4,273.1c0,0,50.2-75.3,49.7-119.4s13.4-6.5,17,11.1c3.1,15.2,2.3,59.2-10,45.8c0,0-2.2,57.5-14.5,37.5
			c0,0-2.2,29.6-8.4,40.2"/>
		<ellipse class="st1" cx="23.7" cy="290.9" rx="23.7" ry="21.8"/>
		<ellipse class="st1" cx="205.4" cy="290.9" rx="23.7" ry="21.8"/>
		<circle class="st0" cx="202.3" cy="296.5" r="10.7"/>
		<circle class="st0" cx="204.7" cy="278.5" r="5.3"/>
		<circle class="st0" cx="217.5" cy="283.8" r="4.5"/>
		<circle class="st0" cx="219.2" cy="295.6" r="3.9"/>
		<path class="st1" d="M181.7,306.9c-3.5,3-91.1,17.6-129.6-4.1C16.9,283,10.4,153.4,55.9,39.6c21-52.7,103.1-52.9,125.8,0
			C236,166.4,226.9,268.1,181.7,306.9z"/>
		<circle class="st2" cx="90.6" cy="50.6" r="9.1"/>
		<circle class="st2" cx="149.6" cy="50.6" r="9.1"/>
		<path class="st3" d="M120.2,59.7c0,0-17.2-0.9-20.9,21.7s42.6,23.1,42.5,3.6C141.9,72.3,130.8,58.7,120.2,59.7z"/>
		<ellipse class="st4" cx="120.5" cy="64.4" rx="6.5" ry="4.7"/>
		<path class="st3" d="M52.1,302.8c0,0,31.4,14.7,35.3-7.2S55,211.3,83.8,181.9c25.8-26.4,68.6-21.5,84.6,10.9
			c14,28.4-21.6,94.2-11.1,107.3c9.6,11.9,24.4,6.8,24.4,6.8C155.8,321.4,79.2,318.9,52.1,302.8z"/>
		<circle class="st0" cx="26.9" cy="294.7" r="10.7"/>
		<circle class="st0" cx="8.9" cy="292.4" r="5.3"/>
		
			<ellipse transform="matrix(0.9999 -1.514629e-02 1.514629e-02 0.9999 -4.2328 0.2465)" class="st0" cx="14.2" cy="279.6" rx="4.5" ry="4.5"/>
		<circle class="st0" cx="26" cy="277.8" r="3.9"/>
		<path class="st0" d="M71.8,27.3c0,0-10.5-19.9-23.3,0s-20.2,50.8-15.1,51S67.8,50.7,71.8,27.3z"/>
		<path class="st0" d="M169.4,29.5c0,0,10.5-19.9,23.3,0s20.2,50.8,15.1,51S173.4,52.8,169.4,29.5z"/>
		<path class="st5" d="M120.9,69.6c0.4,28.1-23.3,17.1-14.1,4.6"/>
		<path class="st5" d="M134.3,72.7c12.5,12.5-12.9,27.5-13.2-3.1"/>
		<path class="st6" d="M91,50.1c0-2,1.6-3.5,3.5-3.5s3.5,1.6,3.5,3.5c0,2.9-4.5,6.1-7.1,6.1c-3.2,0-7.1-3.3-7.1-6.1
			c0.1-1.9,1.6-3.4,3.5-3.5C89.4,46.5,91,48.1,91,50.1"/>
		<path class="st5" d="M77.6,45.2c0,0,15.5-1.4,22.5-10"/>
		<path class="st6" d="M150.2,49.6c0-2-1.6-3.5-3.5-3.5c-2,0-3.5,1.6-3.5,3.5c0,2.9,4.5,6.1,7.1,6.1c3.2,0,7.1-3.3,7.1-6.1
			c-0.1-1.9-1.6-3.4-3.5-3.6C151.8,46,150.2,47.6,150.2,49.6"/>
		<path class="st5" d="M163.6,44.7c0,0-15.5-1.4-22.5-10"/>
		<path class="st7" d="M115,86.7c0,0,5.8,7.4,12.9,0.2c-0.4-0.4-5.6-1.3-6.4-11C121.4,75.9,117.8,87.6,115,86.7z"/>
	</g>
</g>
</svg>
