<svg xmlns="http://www.w3.org/2000/svg" viewBox="0 0 257.7 316.46"><defs><style>.cls-1{fill:#a0866f;}.cls-2{fill:#e7c2a5;}.cls-3{fill:#fff;}.cls-4{fill:#fbe0c9;}.cls-5{fill:#603913;}.cls-6{fill:#231f20;}.cls-7{fill:none;stroke:#231f20;stroke-linecap:round;stroke-linejoin:round;stroke-width:2px;}</style></defs><g id="Layer_2" data-name="Layer 2"><g id="Layer_2-2" data-name="Layer 2"><path class="cls-1" d="M189.41,273.14s50.16-75.26,49.72-119.36,13.43-6.49,17,11.13c3.11,15.21,2.27,59.21-10,45.75,0,0-2.24,57.54-14.47,37.46,0,0-2.24,29.61-8.43,40.17"/><ellipse class="cls-2" cx="23.74" cy="290.87" rx="23.74" ry="21.84"/><ellipse class="cls-2" cx="205.45" cy="290.87" rx="23.74" ry="21.84"/><circle class="cls-1" cx="202.27" cy="296.46" r="10.7"/><circle class="cls-1" cx="204.68" cy="278.46" r="5.32"/><circle class="cls-1" cx="217.47" cy="283.82" r="4.46"/><circle class="cls-1" cx="219.22" cy="295.61" r="3.88"/><path class="cls-2" d="M181.71,306.88c-3.48,3-91.09,17.59-129.63-4.12C16.9,283,10.43,153.44,55.91,39.61c21-52.69,103.12-52.94,125.8,0C236,166.38,226.89,268.08,181.71,306.88Z"/><circle class="cls-3" cx="90.59" cy="50.56" r="9.1"/><circle class="cls-3" cx="149.55" cy="50.56" r="9.1"/><path class="cls-4" d="M120.22,59.71s-17.15-.92-20.86,21.72S141.91,104.52,141.9,85C141.9,72.33,130.76,58.72,120.22,59.71Z"/><ellipse class="cls-5" cx="120.48" cy="64.37" rx="6.46" ry="4.71"/><path class="cls-4" d="M52.08,302.76s31.4,14.68,35.26-7.21S55,211.31,83.77,181.9c25.83-26.39,68.61-21.48,84.58,10.87,14,28.42-21.6,94.25-11.08,107.31,9.55,11.87,24.44,6.8,24.44,6.8C155.79,321.39,79.21,318.94,52.08,302.76Z"/><circle class="cls-1" cx="26.86" cy="294.74" r="10.7"/><circle class="cls-1" cx="8.85" cy="292.39" r="5.32"/><circle class="cls-1" cx="14.16" cy="279.57" r="4.46"/><circle class="cls-1" cx="25.95" cy="277.79" r="3.88"/><path class="cls-1" d="M71.8,27.34s-10.52-19.91-23.33,0-20.19,50.77-15.07,51S67.82,50.67,71.8,27.34Z"/><path class="cls-1" d="M169.39,29.49s10.52-19.91,23.32,0,20.2,50.77,15.08,51S173.37,52.82,169.39,29.49Z"/><circle class="cls-6" cx="92.99" cy="47" r="4.79"/><line class="cls-7" x1="81.49" y1="35.96" x2="107.81" y2="48.47"/><path class="cls-7" d="M121.72,90.22S118,70.65,135.9,80.66"/><path class="cls-7" d="M120.79,68.5s.2,3.79,3.33,10.3"/><circle class="cls-6" cx="146.55" cy="47" r="4.79"/><line class="cls-7" x1="158.05" y1="35.96" x2="131.73" y2="48.47"/></g></g></svg>